<?xml version="1.0" encoding="UTF-8" standalone="no"?>
<!-- Created with Inkscape (http://www.inkscape.org/) -->

<svg
   xmlns:dc="http://purl.org/dc/elements/1.1/"
   xmlns:cc="http://creativecommons.org/ns#"
   xmlns:rdf="http://www.w3.org/1999/02/22-rdf-syntax-ns#"
   xmlns:svg="http://www.w3.org/2000/svg"
   xmlns="http://www.w3.org/2000/svg"
   xmlns:sodipodi="http://sodipodi.sourceforge.net/DTD/sodipodi-0.dtd"
   xmlns:inkscape="http://www.inkscape.org/namespaces/inkscape"
   version="1.1"
   width="100%"
   height="100%"
   viewBox="0 0 512 512"
   id="svg2"
   inkscape:version="0.48.5 r10040"
   sodipodi:docname="anjuta.svg">
  <sodipodi:namedview
     pagecolor="#ffffff"
     bordercolor="#666666"
     borderopacity="1"
     objecttolerance="10"
     gridtolerance="10"
     guidetolerance="10"
     inkscape:pageopacity="0"
     inkscape:pageshadow="2"
     inkscape:window-width="640"
     inkscape:window-height="480"
     id="namedview37"
     showgrid="false"
     inkscape:zoom="0.4609375"
     inkscape:cx="256"
     inkscape:cy="256"
     inkscape:window-x="15"
     inkscape:window-y="39"
     inkscape:window-maximized="0"
     inkscape:current-layer="svg2" />
  <metadata
     id="metadata72">
    <rdf:RDF>
      <cc:Work
         rdf:about="">
        <dc:format>image/svg+xml</dc:format>
        <dc:type
           rdf:resource="http://purl.org/dc/dcmitype/StillImage" />
      </cc:Work>
    </rdf:RDF>
  </metadata>
  <defs
     id="defs70" />
  <path
     d="m 493.64492,256.30424 c 0,132.28314 -107.23797,239.51017 -239.51017,239.51017 -132.28314,0 -239.510174,-107.23797 -239.510174,-239.51017 0,-132.28314 107.237974,-239.510172 239.510174,-239.510172 132.28314,0 239.51017,107.237972 239.51017,239.510172"
     inkscape:connector-curvature="0"
     id="path4"
     style="fill:#924565;fill-rule:evenodd" />
  <text
     x="729.64001"
     y="231.36"
     id="text20"
     style="font-size:129.22999573px;line-height:125%;letter-spacing:0;word-spacing:0;font-family:Gentium Book Basic">
    <tspan
       x="729.64001"
       y="231.36"
       id="tspan22" />
  </text>
  <text
     x="378.91"
     y="579.25"
     transform="scale(4.0128,0.2492)"
     id="text24"
     style="font-size:46.95399857px;text-anchor:middle;font-family:Arial" />
  <text
     x="1310.91"
     y="151.36"
     id="text26"
     style="font-size:129.22999573px;line-height:125%;letter-spacing:0;word-spacing:0;font-family:Gentium Book Basic">
    <tspan
       x="1310.91"
       y="151.36"
       id="tspan28" />
  </text>
  <text
     x="523.76001"
     y="258.22"
     transform="scale(4.0128,0.2492)"
     id="text30"
     style="font-size:46.95399857px;text-anchor:middle;font-family:Arial" />
  <text
     x="239.33"
     y="-29.900999"
     id="text32"
     style="font-size:129.22999573px;line-height:125%;letter-spacing:0;word-spacing:0;font-family:Gentium Book Basic">
    <tspan
       x="239.33"
       y="-29.900999"
       id="tspan34" />
  </text>
  <text
     x="256.72"
     y="-469.14001"
     transform="scale(4.0128,0.2492)"
     id="text36"
     style="font-size:46.95399857px;text-anchor:middle;font-family:Arial" />
  <text
     x="1337.38"
     y="-246.37"
     id="text38"
     style="font-size:129.22999573px;line-height:125%;letter-spacing:0;word-spacing:0;font-family:Gentium Book Basic">
    <tspan
       x="1337.38"
       y="-246.37"
       id="tspan40" />
  </text>
  <text
     x="530.35999"
     y="-1337.8101"
     transform="scale(4.0128,0.2492)"
     id="text42"
     style="font-size:46.95399857px;text-anchor:middle;font-family:Arial" />
  <text
     x="1918.65"
     y="-326.38"
     id="text44"
     style="font-size:129.22999573px;line-height:125%;letter-spacing:0;word-spacing:0;font-family:Gentium Book Basic">
    <tspan
       x="1918.65"
       y="-326.38"
       id="tspan46" />
  </text>
  <text
     x="675.21002"
     y="-1658.85"
     transform="scale(4.0128,0.2492)"
     id="text48"
     style="font-size:46.95399857px;text-anchor:middle;font-family:Arial" />
  <text
     x="1529.53"
     y="-798.78003"
     id="text50"
     style="font-size:129.22999573px;line-height:125%;letter-spacing:0;word-spacing:0;font-family:Gentium Book Basic">
    <tspan
       x="1529.53"
       y="-798.78003"
       id="tspan52" />
  </text>
  <text
     x="578.23999"
     y="-3554.51"
     transform="scale(4.0128,0.2492)"
     id="text54"
     style="font-size:46.95399857px;text-anchor:middle;font-family:Arial" />
  <text
     x="2110.79"
     y="-878.78003"
     id="text56"
     style="font-size:129.22999573px;line-height:125%;letter-spacing:0;word-spacing:0;font-family:Gentium Book Basic">
    <tspan
       x="2110.79"
       y="-878.78003"
       id="tspan58" />
  </text>
  <text
     x="723.09003"
     y="-3875.54"
     transform="scale(4.0128,0.2492)"
     id="text60"
     style="font-size:46.95399857px;text-anchor:middle;font-family:Arial" />
  <text
     x="277.98999"
     y="535.94"
     id="text62"
     style="font-size:208.33000183px;line-height:125%;letter-spacing:0;word-spacing:0;font-family:Gentium Book Basic">
    <tspan
       x="277.98999"
       y="535.94"
       id="tspan64" />
  </text>
  <path
     d="m 264.80274,105.43143 c -14.4647,0.33153 -28.69964,2.44872 -42.47941,6.21589 3.38313,1.50336 6.7192,3.1052 10.18329,4.52104 8.17661,-3.04722 20.59415,-6.22136 37.52946,-5.9336 17.23948,0.29324 44.60754,8.05735 60.51762,12.99636 a 160.16332,155.53004 0 0 0 -45.68006,-17.23483 c -0.29651,-0.0285 -0.5788,0.0295 -0.87204,0 -6.40845,-0.51097 -12.82129,-0.7123 -19.20348,-0.56568 m -11.06189,11.01812 c -6.66777,0.31403 -11.98208,0.77357 -16.58737,1.41256 2.36118,0.93659 4.61186,1.92024 6.98289,2.8251 0.30308,0 0.56896,-0.001 0.87204,0 21.80647,0.0985 47.35496,4.99372 77.10499,15.53917 -18.74285,-4.65781 -37.67827,-7.42055 -55.86748,-7.34615 23.78143,8.67117 45.54414,16.72195 57.02728,26.84068 l -1.16418,11.5838 c 0,0 50.73589,21.88307 83.79026,50.57177 a 160.16332,155.53004 0 0 0 -72.44809,-92.95531 c -34.08288,-7.92933 -60.86775,-9.36377 -79.7222,-8.47641 m -52.37165,2.54281 c 0.26587,3.24526 0.65758,6.13055 1.45522,8.76418 2.61393,-0.9738 5.36354,-2.04716 8.14706,-2.82511 -3.19055,-1.778 -6.45659,-3.60961 -9.60119,-5.93359 m -15.41662,7.62844 c -53.60914,30.18331 -90.978854,93.21092 -81.17524,192.40686 0.009,0.0963 -0.009,0.1882 0,0.2823 a 160.16332,155.53004 0 0 0 7.56489,14.69217 c -3.79999,-45.1776 -2.27146,-77.26911 13.67473,-124.31771 0,0 -13.17361,60.97389 5.52547,150.58833 0.0208,0.0952 -0.0208,0.186 0,0.2801 a 160.16332,155.53004 0 0 0 10.7654,10.73651 c -20.30749,-82.67423 -21.50558,-198.59977 47.13613,-237.3328 -1.25828,-2.18503 -2.47607,-4.64797 -3.49145,-7.34615 m 43.35255,6.78156 c -6.63057,1.73314 -12.84974,4.22781 -18.91244,7.06386 8.90859,8.98081 21.98154,10.3496 28.22259,9.89115 0,0 -21.93778,7.40741 -38.70021,-4.52105 -47.95236,29.85945 -70.09146,103.1349 -25.02219,248.91989 a 160.16332,155.53004 0 0 0 0.29021,0 160.16332,155.53004 0 0 0 76.23045,18.93009 160.16332,155.53004 0 0 0 159.15287,-172.3487 c -5.90624,8.89109 -13.38478,22.98816 -17.16617,42.66322 0,0 -76.8971,-49.48855 -137.62261,-11.5838 0,0 -83.47296,-40.65874 -31.42299,-97.7626 0,0 16.0567,8.40529 24.73115,12.1451 -42.89081,30.41965 9.6012,66.96219 9.6012,66.96219 0,0 42.69386,-41.0592 123.66121,4.80333 0,0 5.86357,-18.6772 13.09264,-22.88531 -40.48149,-37.90694 -96.01196,-56.79094 -96.01196,-56.79094 l 1.16418,-16.66942 c -34.07194,-16.40355 -55.07968,-22.7201 -71.28409,-28.81891 m 36.95174,28.53552 c 0,0 16.23724,5.08563 24.44011,5.08563 0,0 0.56568,11.70525 -11.05095,14.69229 -8.88671,-2.65551 -13.38368,-19.7823 -13.38368,-19.7823"
     inkscape:connector-curvature="0"
     id="path66"
     style="color:#000000;fill:#ffffff" />
</svg>
