<?xml version="1.0" encoding="UTF-8" standalone="no"?>
<!-- Generator: flash2svg, http://dissentgraphics.com/tools/flash2svg -->

<svg
   xmlns:dc="http://purl.org/dc/elements/1.1/"
   xmlns:cc="http://creativecommons.org/ns#"
   xmlns:rdf="http://www.w3.org/1999/02/22-rdf-syntax-ns#"
   xmlns:svg="http://www.w3.org/2000/svg"
   xmlns="http://www.w3.org/2000/svg"
   xmlns:sodipodi="http://sodipodi.sourceforge.net/DTD/sodipodi-0.dtd"
   xmlns:inkscape="http://www.inkscape.org/namespaces/inkscape"
   id="Messages"
   image-rendering="optimizeSpeed"
   version="1.1"
   style="background-color:#FFFFFF"
   x="0px"
   y="0px"
   width="1024px"
   height="1024px"
   viewBox="0 0 1024 1024"
   enable-background="new 0 0 1024 1024"
   inkscape:version="0.48.5 r10040"
   sodipodi:docname="empathy.svg">
  <metadata
     id="metadata25">
    <rdf:RDF>
      <cc:Work
         rdf:about="">
        <dc:format>image/svg+xml</dc:format>
        <dc:type
           rdf:resource="http://purl.org/dc/dcmitype/StillImage" />
      </cc:Work>
    </rdf:RDF>
  </metadata>
  <sodipodi:namedview
     pagecolor="#ffffff"
     bordercolor="#666666"
     borderopacity="1"
     objecttolerance="10"
     gridtolerance="10"
     guidetolerance="10"
     inkscape:pageopacity="0"
     inkscape:pageshadow="2"
     inkscape:window-width="640"
     inkscape:window-height="480"
     id="namedview23"
     showgrid="false"
     inkscape:zoom="0.23046875"
     inkscape:cx="512"
     inkscape:cy="512"
     inkscape:window-x="15"
     inkscape:window-y="39"
     inkscape:window-maximized="0"
     inkscape:current-layer="Messages" />
  <defs
     transform="matrix(1 0 0 1 0 0) "
     id="defs3" />
  <g
     id="shadow"
     transform="matrix(1.0225063,0,0,1.0225063,-12.900251,-16.595166)">
    <g
       id="shape">
      <path
         id="path"
         d="M 969.6,351.25 Q 961,330.4 950.2,310.4 C 946.15,302.85 941.85,295.35 937.3,288 917.75,256.3 893.9,226.35 865.75,198.2 773.6,106.05 662.3,59.95 531.95,59.95 401.6,59.95 290.35,106.05 198.2,198.2 106.05,290.35 59.95,401.6 59.95,531.95 c 0,130.35 46.1,241.65 138.25,333.8 92.15,92.15 203.4,138.2 333.75,138.2 130.35,0 241.65,-46.05 333.8,-138.2 50.75,-50.8 87.55,-107.4 110.35,-169.75 18.55,-50.85 27.85,-105.5 27.85,-164.05 0,-44.9 -5.45,-87.55 -16.4,-127.95 -1.25,-4.55 -2.55,-9.1 -3.9,-13.6 -4.1,-13.3 -8.8,-26.35 -14.05,-39.15 z"
         inkscape:connector-curvature="0"
         style="fill:#000000;fill-opacity:0.09803922" />
    </g>
  </g>
  <g
     id="circle"
     transform="matrix(1.0225063,0,0,1.0225063,-12.900251,-16.595166)">
    <g
       id="shape2">
      <path
         id="path1"
         d="m 966.05,378.4 c -2.5,-8.75 -5.35,-17.6 -8.45,-26.35 C 951.15,333.8 943.45,316 934.45,298.4 930.65,291 926.5,283.45 922.15,276 901.85,241.5 876.35,208.8 845.8,178.25 773.2,105.65 688.65,61.6 592.15,46.2 575.9,43.6 559.35,41.8 542.1,40.85 532.4,40.3 522.25,40 512,40 c -9.35,0 -18.6,0.25 -27.9,0.75 -118.35,6.1 -220.3,51.95 -305.85,137.5 Q 40,316.5 40,512 c 0,130.35 46.1,241.65 138.25,333.8 85.55,85.5 187.5,131.35 305.85,137.5 0.15,0 0.25,0 0.4,0 8.5,0.45 16.6,0.7 24.5,0.7 1.2,0 2.1,0 3,0 1.9,0 3.8,0 5.45,0 8.55,-0.1 16.8,-0.4 24.65,-0.8 2.5,-0.15 4.75,-0.3 6.95,-0.45 20.2,-1.45 39.9,-4.05 58.7,-7.7 7.95,-1.55 15.8,-3.3 23.4,-5.15 80.8,-20.3 152.15,-61.6 214.65,-124.1 48.6,-48.6 84.4,-102.5 107.35,-161.8 16.6,-42.9 26.55,-88.65 29.75,-137.45 0.35,-5.2 0.6,-10.6 0.8,-16.05 0.2,-6.05 0.3,-12.25 0.3,-18.5 0,-0.65 0,-1.35 0,-2 0,-0.35 0,-0.65 0,-1 -0.2,-40.65 -4.95,-79.5 -14.3,-117 -1.1,-4.35 -2.35,-9 -3.65,-13.6 z"
         inkscape:connector-curvature="0"
         style="fill:#333333;fill-opacity:1" />
    </g>
  </g>
  <g
     id="ico"
     transform="matrix(1.0225063,0,0,1.0225063,-12.900251,-16.595166)">
    <g
       id="Symbole.__2012_1"
       overflow="visible"
       style="overflow:visible">
      <g
         id="Calque.__202">
        <g
           id="shape19">
          <path
             id="path14"
             d="m 828.45,410.05 c 0,-8.25 -2.95,-15.35 -8.8,-21.2 -5.85,-5.85 -12.95,-8.8 -21.2,-8.8 l -126.45,0 -206.2,0 c -8.25,0 -15.35,2.95 -21.2,8.8 -5.85,5.85 -8.8,12.95 -8.8,21.2 l 0,225.95 0,52.05 c 0,8.25 2.95,15.35 8.8,21.2 5.85,5.85 12.95,8.8 21.2,8.8 l 157.9,0 101.05,101.05 c 4.7,4.7 10.4,7.05 17.05,7.05 6.65,0 12.35,-2.35 17.05,-7.05 4.7,-4.7 7.05,-10.4 7.05,-17.05 l 0,-84 32.55,0 c 8.25,0 15.35,-2.95 21.2,-8.8 5.85,-5.85 8.8,-12.95 8.8,-21.2 l 0,-278 z M 534.5,578.8 c -9.55,0 -17.65,-3.4 -24.4,-10.15 -6.75,-6.75 -10.1,-14.85 -10.1,-24.4 0,-9.5 3.35,-17.65 10.1,-24.4 6.75,-6.75 14.85,-10.1 24.4,-10.1 9.55,0 17.65,3.35 24.4,10.1 6.75,6.75 10.1,14.9 10.1,24.4 0,9.55 -3.35,17.65 -10.1,24.4 -6.75,6.75 -14.85,10.15 -24.4,10.15 z M 667,544.25 c 0,9.55 -3.4,17.65 -10.15,24.4 -6.75,6.75 -14.85,10.15 -24.35,10.15 -9.55,0 -17.7,-3.4 -24.45,-10.15 -6.75,-6.75 -10.1,-14.85 -10.1,-24.4 0,-9.5 3.35,-17.65 10.1,-24.4 6.75,-6.75 14.9,-10.1 24.45,-10.1 9.5,0 17.6,3.35 24.35,10.1 6.75,6.75 10.15,14.9 10.15,24.4 z m 98,0 c 0,9.55 -3.4,17.65 -10.15,24.4 -6.75,6.75 -14.85,10.15 -24.4,10.15 -9.5,0 -17.65,-3.4 -24.4,-10.15 -6.75,-6.75 -10.1,-14.85 -10.1,-24.4 0,-9.5 3.35,-17.65 10.1,-24.4 6.75,-6.75 14.9,-10.1 24.4,-10.1 9.55,0 17.65,3.35 24.4,10.1 6.75,6.75 10.15,14.9 10.15,24.4 z"
             inkscape:connector-curvature="0"
             style="fill:#f1f1f1;fill-opacity:1" />
          <path
             id="path15"
             d="m 534.5,578.8 c 9.55,0 17.65,-3.4 24.4,-10.15 6.75,-6.75 10.1,-14.85 10.1,-24.4 0,-9.5 -3.35,-17.65 -10.1,-24.4 -6.75,-6.75 -14.85,-10.1 -24.4,-10.1 -9.55,0 -17.65,3.35 -24.4,10.1 -6.75,6.75 -10.1,14.9 -10.1,24.4 0,9.55 3.35,17.65 10.1,24.4 6.75,6.75 14.85,10.15 24.4,10.15 z"
             inkscape:connector-curvature="0"
             style="fill:#999999;fill-opacity:1" />
          <path
             id="path16"
             d="m 667,544.25 c 0,-9.5 -3.4,-17.65 -10.15,-24.4 -6.75,-6.75 -14.85,-10.1 -24.35,-10.1 -9.55,0 -17.7,3.35 -24.45,10.1 -6.75,6.75 -10.1,14.9 -10.1,24.4 0,9.55 3.35,17.65 10.1,24.4 6.75,6.75 14.9,10.15 24.45,10.15 9.5,0 17.6,-3.4 24.35,-10.15 C 663.6,561.9 667,553.8 667,544.25 z"
             inkscape:connector-curvature="0"
             style="fill:#999999;fill-opacity:1" />
          <path
             id="path17"
             d="m 765,544.25 c 0,-9.5 -3.4,-17.65 -10.15,-24.4 -6.75,-6.75 -14.85,-10.1 -24.4,-10.1 -9.5,0 -17.65,3.35 -24.4,10.1 -6.75,6.75 -10.1,14.9 -10.1,24.4 0,9.55 3.35,17.65 10.1,24.4 6.75,6.75 14.9,10.15 24.4,10.15 9.55,0 17.65,-3.4 24.4,-10.15 C 761.6,561.9 765,553.8 765,544.25 z"
             inkscape:connector-curvature="0"
             style="fill:#999999;fill-opacity:1" />
          <path
             id="path18"
             d="m 672,248 c 0,-8.25 -2.95,-15.35 -8.8,-21.2 -5.85,-5.85 -12.95,-8.8 -21.2,-8.8 l -412.65,0 c -8.25,0 -15.35,2.95 -21.2,8.8 -5.85,5.85 -8.8,12.95 -8.8,21.2 l 0,358 c 0,8.25 2.95,15.35 8.8,21.2 5.85,5.85 12.95,8.8 21.2,8.8 l 32.55,0 0,84 c 0,6.65 2.35,12.35 7.05,17.05 4.7,4.7 10.4,7.05 17.05,7.05 6.65,0 12.35,-2.35 17.05,-7.05 L 404.1,636 l 31.7,0 0,-225.95 c 0,-8.25 2.95,-15.35 8.8,-21.2 5.85,-5.85 12.95,-8.8 21.2,-8.8 l 206.2,0 0,-132.05 z"
             inkscape:connector-curvature="0"
             style="fill:#53a7d4;fill-opacity:1" />
        </g>
      </g>
    </g>
  </g>
</svg>
