<?xml version="1.0" encoding="UTF-8" standalone="no"?>
<!-- Generator: flash2svg, http://dissentgraphics.com/tools/flash2svg -->

<svg
   xmlns:dc="http://purl.org/dc/elements/1.1/"
   xmlns:cc="http://creativecommons.org/ns#"
   xmlns:rdf="http://www.w3.org/1999/02/22-rdf-syntax-ns#"
   xmlns:svg="http://www.w3.org/2000/svg"
   xmlns="http://www.w3.org/2000/svg"
   xmlns:sodipodi="http://sodipodi.sourceforge.net/DTD/sodipodi-0.dtd"
   xmlns:inkscape="http://www.inkscape.org/namespaces/inkscape"
   id="Font-Book"
   image-rendering="optimizeSpeed"
   version="1.1"
   style="background-color:#FFFFFF"
   x="0px"
   y="0px"
   width="1024px"
   height="1024px"
   viewBox="0 0 1024 1024"
   enable-background="new 0 0 1024 1024"
   inkscape:version="0.48.5 r10040"
   sodipodi:docname="fontbook.svg">
  <sodipodi:namedview
     pagecolor="#ffffff"
     bordercolor="#666666"
     borderopacity="1"
     objecttolerance="10"
     gridtolerance="10"
     guidetolerance="10"
     inkscape:pageopacity="0"
     inkscape:pageshadow="2"
     inkscape:window-width="640"
     inkscape:window-height="480"
     id="namedview25"
     showgrid="false"
     inkscape:zoom="0.32593203"
     inkscape:cx="730.5877"
     inkscape:cy="563.95927"
     inkscape:window-x="269"
     inkscape:window-y="91"
     inkscape:window-maximized="0"
     inkscape:current-layer="Font-Book" />
  <metadata
     id="metadata27">
    <rdf:RDF>
      <cc:Work
         rdf:about="">
        <dc:format>image/svg+xml</dc:format>
        <dc:type
           rdf:resource="http://purl.org/dc/dcmitype/StillImage" />
      </cc:Work>
    </rdf:RDF>
  </metadata>
  <defs
     id="defs3"
     transform="matrix(1 0 0 1 0 0) " />
  <g
     id="shadow"
     transform="matrix(1.0286354,0,0,1.0286354,-22.609401,-19.54414)">
    <g
       id="shape">
      <path
         d="M 969.6,351.25 Q 961,330.4 950.2,310.4 C 946.15,302.85 941.85,295.35 937.3,288 917.75,256.3 893.9,226.35 865.75,198.2 773.6,106.05 662.3,59.95 531.95,59.95 401.6,59.95 290.35,106.05 198.2,198.2 106.05,290.35 59.95,401.6 59.95,531.95 c 0,130.35 46.1,241.65 138.25,333.8 92.15,92.15 203.4,138.2 333.75,138.2 130.35,0 241.65,-46.05 333.8,-138.2 50.75,-50.8 87.55,-107.4 110.35,-169.75 18.55,-50.85 27.85,-105.5 27.85,-164.05 0,-44.9 -5.45,-87.55 -16.4,-127.95 -1.25,-4.55 -2.55,-9.1 -3.9,-13.6 -4.1,-13.3 -8.8,-26.35 -14.05,-39.15 z"
         id="path"
         inkscape:connector-curvature="0"
         style="fill:#000000;fill-opacity:0.09803922" />
    </g>
  </g>
  <g
     id="circle"
     transform="matrix(1.0286354,0,0,1.0286354,-22.609401,-19.54414)">
    <g
       id="shape2">
      <path
         d="m 982.9,511.35 q 0,-39.867 -5.75,-77.35 C 962.2,336.5 918.05,251.1 844.75,177.8 752.65,85.7 641.5,39.65 511.25,39.65 381,39.65 269.8,85.7 177.7,177.8 85.6,269.9 39.55,381.1 39.55,511.35 c 0,130.25 46.05,241.4 138.15,333.5 73.35,73.35 158.85,117.5 256.5,132.45 24.9,3.8 50.6,5.7 77.05,5.7 130.25,0 241.4,-46.05 333.5,-138.15 92.1,-92.1 138.15,-203.25 138.15,-333.5 z"
         id="path1"
         inkscape:connector-curvature="0"
         style="fill:#63786f;fill-opacity:1" />
    </g>
  </g>
  <g
     id="book"
     transform="matrix(1.0286354,0,0,1.0286354,-22.609401,-19.54414)">
    <g
       overflow="visible"
       id="Symbole.__203_1"
       style="overflow:visible">
      <g
         id="Calque.__202">
        <g
           id="shape14">
          <path
             d="m 636.3,368.65 124.9,124.5 0,-259.5 Q 761.2,202 729.55,202 l -378.3,0 0,536.65 286.6,0 -126.9,-125.65 23,-192.05 102.35,-52.3 z"
             id="path8"
             inkscape:connector-curvature="0"
             style="fill:#273000;fill-opacity:1" />
          <path
             d="m 761.2,493.15 -124.9,-124.5 -102.35,52.3 -23,192.05 126.9,125.65 95,0 0,0.1 1.05,0 c 7.45,-0.2 13.85,-2.95 19.1,-8.2 5.25,-5.25 8,-11.65 8.2,-19.1 l 0,-218.3 z"
             id="path9"
             inkscape:connector-curvature="0"
             style="fill:#1f2700;fill-opacity:1" />
          <path
             d="m 283.1,202 c -21.1,0 -31.65,10.55 -31.65,31.65 l 0,545.55 c 0,21.1 10.55,31.65 31.65,31.65 l 446.45,0 c 20.65,0 31.2,-10.1 31.65,-30.35 l -59.9,0 0,-0.2 -399.2,0 c -5.75,0 -10.65,-2.05 -14.75,-6.15 -4.05,-4 -6.05,-8.85 -6.05,-14.6 l 0,-0.1 c 0,-5.75 2,-10.65 6.05,-14.75 4.1,-4.05 9,-6.05 14.75,-6.05 l 49.15,0 0,-536.65 -68.15,0 z"
             id="path10"
             inkscape:connector-curvature="0"
             style="fill:#121700;fill-opacity:1" />
          <path
             d="m 281.3,759.55 c 0,5.75 2,10.6 6.05,14.6 4.1,4.1 9,6.15 14.75,6.15 l 399.2,0 31.55,0 0,-41.55 0,-0.1 -95,0 -286.6,0 -49.15,0 c -5.75,0 -10.65,2 -14.75,6.05 -4.05,4.1 -6.05,9 -6.05,14.75 l 0,0.1 z"
             id="path11"
             inkscape:connector-curvature="0"
             style="fill:#b7e200;fill-opacity:1" />
        </g>
      </g>
    </g>
  </g>
  <g
     id="T"
     style="fill:#bdcdd4"
     transform="matrix(1.0286354,0,0,1.0286354,-22.609401,-19.54414)">
    <g
       id="shape6"
       style="fill:#bdcdd4">
      <path
         d="m 636.7,368.65 -184.9,0 0,53.8 59.55,0 0,190.15 65.95,0 0,-190.15 59.4,0 0,-53.8 z"
         id="path3"
         style="fill:#bdcdd4;fill-opacity:1"
         inkscape:connector-curvature="0" />
    </g>
  </g>
</svg>
