<?xml version="1.0" encoding="UTF-8" standalone="no"?>
<!-- Created with Inkscape (http://www.inkscape.org/) -->

<svg
   xmlns:dc="http://purl.org/dc/elements/1.1/"
   xmlns:cc="http://creativecommons.org/ns#"
   xmlns:rdf="http://www.w3.org/1999/02/22-rdf-syntax-ns#"
   xmlns:svg="http://www.w3.org/2000/svg"
   xmlns="http://www.w3.org/2000/svg"
   xmlns:inkscape="http://www.inkscape.org/namespaces/inkscape"
   version="1.1"
   width="100%"
   height="100%"
   viewBox="0 0 512 512"
   id="svg2">
  <metadata
     id="metadata72">
    <rdf:RDF>
      <cc:Work
         rdf:about="">
        <dc:format>image/svg+xml</dc:format>
        <dc:type
           rdf:resource="http://purl.org/dc/dcmitype/StillImage" />
      </cc:Work>
    </rdf:RDF>
  </metadata>
  <defs
     id="defs70" />
  <path
     d="m 471.95,253.05 c 0,120.9 -98.01,218.9 -218.9,218.9 -120.9,0 -218.9,-98.01 -218.9,-218.9 0,-120.9 98.01,-218.9 218.9,-218.9 120.9,0 218.9,98.01 218.9,218.9"
     inkscape:connector-curvature="0"
     id="path4"
     style="fill:#2d4c7b;fill-rule:evenodd" />
  <path
     d="m 298.41,132.81 c -10.481,0.054 -21.21,2.77 -32.12,10.03 v 123.31 c -19,-17.794 -47.886,-20.73 -79.31,-8.875 -40.601,15.321 -63.33,53.876 -50.906,85.72 2.736,7.02 6.968,13.11 12.313,18.219 0.042,0.042 0.083,0.083 0.125,0.125 0.127,0.124 0.247,0.252 0.375,0.375 0.042,0.042 0.083,0.083 0.125,0.125 0.127,0.124 0.247,0.252 0.375,0.375 0.042,0.042 0.083,0.083 0.125,0.125 0.127,0.124 0.247,0.252 0.375,0.375 0.042,0.042 0.083,0.083 0.125,0.125 0.127,0.124 0.247,0.252 0.375,0.375 0.042,0.042 0.083,0.083 0.125,0.125 0.01,0.011 0.021,0.02 0.031,0.031 0.116,0.113 0.226,0.231 0.344,0.344 0.042,0.042 0.083,0.083 0.125,0.125 0.01,0.011 0.021,0.02 0.031,0.031 0.01,0.011 0.021,0.021 0.031,0.031 0.106,0.103 0.206,0.21 0.313,0.313 0.042,0.042 0.083,0.083 0.125,0.125 0.01,0.011 0.021,0.02 0.031,0.031 0.031,0.031 0.063,0.062 0.094,0.094 0.01,0.011 0.021,0.021 0.031,0.031 0.069,0.067 0.118,0.152 0.188,0.219 0.158,0.155 0.309,0.316 0.469,0.469 0.167,0.164 0.33,0.338 0.5,0.5 0.236,0.232 0.479,0.46 0.719,0.688 0.074,0.072 0.144,0.147 0.219,0.219 0.168,0.166 0.33,0.336 0.5,0.5 0.168,0.166 0.33,0.336 0.5,0.5 0.168,0.166 0.33,0.336 0.5,0.5 0.168,0.166 0.33,0.336 0.5,0.5 0.168,0.166 0.33,0.336 0.5,0.5 0.168,0.166 0.33,0.336 0.5,0.5 0.031,0.031 0.063,0.062 0.094,0.094 0.169,0.165 0.329,0.337 0.5,0.5 0.042,0.042 0.083,0.083 0.125,0.125 0.127,0.124 0.247,0.252 0.375,0.375 0.042,0.042 0.083,0.083 0.125,0.125 0.127,0.124 0.247,0.252 0.375,0.375 0.042,0.042 0.083,0.083 0.125,0.125 0.127,0.124 0.247,0.252 0.375,0.375 0.042,0.042 0.083,0.083 0.125,0.125 0.127,0.124 0.247,0.252 0.375,0.375 0.042,0.042 0.083,0.083 0.125,0.125 0.127,0.124 0.247,0.252 0.375,0.375 0.042,0.042 0.083,0.083 0.125,0.125 0.127,0.124 0.247,0.252 0.375,0.375 0.042,0.042 0.083,0.083 0.125,0.125 0.127,0.124 0.247,0.252 0.375,0.375 0.042,0.042 0.083,0.083 0.125,0.125 0.127,0.124 0.247,0.252 0.375,0.375 0.042,0.042 0.083,0.083 0.125,0.125 0.127,0.124 0.247,0.252 0.375,0.375 0.042,0.042 0.083,0.083 0.125,0.125 0.127,0.124 0.247,0.252 0.375,0.375 0.042,0.042 0.083,0.083 0.125,0.125 0.127,0.124 0.247,0.252 0.375,0.375 0.042,0.042 0.083,0.083 0.125,0.125 0.01,0.011 0.021,0.02 0.031,0.031 0.116,0.113 0.226,0.231 0.344,0.344 0.042,0.042 0.083,0.083 0.125,0.125 0.01,0.011 0.021,0.02 0.031,0.031 0.01,0.011 0.021,0.021 0.031,0.031 0.106,0.103 0.206,0.21 0.313,0.313 0.042,0.042 0.083,0.083 0.125,0.125 0.01,0.011 0.021,0.02 0.031,0.031 0.031,0.031 0.063,0.062 0.094,0.094 0.01,0.011 0.021,0.021 0.031,0.031 0.069,0.067 0.118,0.152 0.188,0.219 0.158,0.155 0.309,0.316 0.469,0.469 0.167,0.164 0.33,0.338 0.5,0.5 0.236,0.232 0.479,0.46 0.719,0.688 0.074,0.072 0.144,0.147 0.219,0.219 0.168,0.166 0.33,0.336 0.5,0.5 0.168,0.166 0.33,0.336 0.5,0.5 0.168,0.166 0.33,0.336 0.5,0.5 0.168,0.166 0.33,0.336 0.5,0.5 0.168,0.166 0.33,0.336 0.5,0.5 0.168,0.166 0.33,0.336 0.5,0.5 0.031,0.031 0.063,0.062 0.094,0.094 0.169,0.165 0.329,0.337 0.5,0.5 0.042,0.042 0.083,0.083 0.125,0.125 0.127,0.124 0.247,0.252 0.375,0.375 0.042,0.042 0.083,0.083 0.125,0.125 0.127,0.124 0.247,0.252 0.375,0.375 0.042,0.042 0.083,0.083 0.125,0.125 0.127,0.124 0.247,0.252 0.375,0.375 0.042,0.042 0.083,0.083 0.125,0.125 0.127,0.124 0.247,0.252 0.375,0.375 0.042,0.042 0.083,0.083 0.125,0.125 0.127,0.124 0.247,0.252 0.375,0.375 0.042,0.042 0.083,0.083 0.125,0.125 0.127,0.124 0.247,0.252 0.375,0.375 0.042,0.042 0.083,0.083 0.125,0.125 0.127,0.124 0.247,0.252 0.375,0.375 0.042,0.042 0.083,0.083 0.125,0.125 0.127,0.124 0.247,0.252 0.375,0.375 0.042,0.042 0.083,0.083 0.125,0.125 0.127,0.124 0.247,0.252 0.375,0.375 0.042,0.042 0.083,0.083 0.125,0.125 0.127,0.124 0.247,0.252 0.375,0.375 0.042,0.042 0.083,0.083 0.125,0.125 0.127,0.124 0.247,0.252 0.375,0.375 0.042,0.042 0.083,0.083 0.125,0.125 0.01,0.011 0.021,0.02 0.031,0.031 0.116,0.113 0.226,0.231 0.344,0.344 0.042,0.042 0.083,0.083 0.125,0.125 0.01,0.011 0.021,0.02 0.031,0.031 0.01,0.011 0.021,0.021 0.031,0.031 0.106,0.103 0.206,0.21 0.313,0.313 0.042,0.042 0.083,0.083 0.125,0.125 0.01,0.011 0.021,0.02 0.031,0.031 0.031,0.031 0.063,0.062 0.094,0.094 0.01,0.011 0.021,0.021 0.031,0.031 0.069,0.067 0.118,0.152 0.188,0.219 0.158,0.155 0.309,0.316 0.469,0.469 0.167,0.164 0.33,0.338 0.5,0.5 0.236,0.232 0.479,0.46 0.719,0.688 0.074,0.072 0.144,0.147 0.219,0.219 0.168,0.166 0.33,0.336 0.5,0.5 0.168,0.166 0.33,0.336 0.5,0.5 0.168,0.166 0.33,0.336 0.5,0.5 0.168,0.166 0.33,0.336 0.5,0.5 0.168,0.166 0.33,0.336 0.5,0.5 0.168,0.166 0.33,0.336 0.5,0.5 0.031,0.031 0.063,0.062 0.094,0.094 0.169,0.165 0.329,0.337 0.5,0.5 0.042,0.042 0.083,0.083 0.125,0.125 0.127,0.124 0.247,0.252 0.375,0.375 0.042,0.042 0.083,0.083 0.125,0.125 0.127,0.124 0.247,0.252 0.375,0.375 0.042,0.042 0.083,0.083 0.125,0.125 0.127,0.124 0.247,0.252 0.375,0.375 0.042,0.042 0.083,0.083 0.125,0.125 0.127,0.124 0.247,0.252 0.375,0.375 0.042,0.042 0.083,0.083 0.125,0.125 0.127,0.124 0.247,0.252 0.375,0.375 0.042,0.042 0.083,0.083 0.125,0.125 0.127,0.124 0.247,0.252 0.375,0.375 0.042,0.042 0.083,0.083 0.125,0.125 0.127,0.124 0.247,0.252 0.375,0.375 0.042,0.042 0.083,0.083 0.125,0.125 0.127,0.124 0.247,0.252 0.375,0.375 0.042,0.042 0.083,0.083 0.125,0.125 0.127,0.124 0.247,0.252 0.375,0.375 0.042,0.042 0.083,0.083 0.125,0.125 0.127,0.124 0.247,0.252 0.375,0.375 0.042,0.042 0.083,0.083 0.125,0.125 0.127,0.124 0.247,0.252 0.375,0.375 0.042,0.042 0.083,0.083 0.125,0.125 0.01,0.011 0.021,0.02 0.031,0.031 0.116,0.113 0.226,0.231 0.344,0.344 0.042,0.042 0.083,0.083 0.125,0.125 0.01,0.011 0.021,0.02 0.031,0.031 0.01,0.011 0.021,0.021 0.031,0.031 0.106,0.103 0.206,0.21 0.313,0.313 0.042,0.042 0.083,0.083 0.125,0.125 0.01,0.011 0.021,0.02 0.031,0.031 0.031,0.031 0.063,0.062 0.094,0.094 0.01,0.011 0.021,0.021 0.031,0.031 0.069,0.067 0.118,0.152 0.188,0.219 0.158,0.155 0.309,0.316 0.469,0.469 0.167,0.164 0.33,0.338 0.5,0.5 0.236,0.232 0.479,0.46 0.719,0.688 0.074,0.072 0.144,0.147 0.219,0.219 0.168,0.166 0.33,0.336 0.5,0.5 0.168,0.166 0.33,0.336 0.5,0.5 0.168,0.166 0.33,0.336 0.5,0.5 0.168,0.166 0.33,0.336 0.5,0.5 0.168,0.166 0.33,0.336 0.5,0.5 0.168,0.166 0.33,0.336 0.5,0.5 0.031,0.031 0.063,0.062 0.094,0.094 0.169,0.165 0.329,0.337 0.5,0.5 0.042,0.042 0.083,0.083 0.125,0.125 0.127,0.124 0.247,0.252 0.375,0.375 0.042,0.042 0.083,0.083 0.125,0.125 0.127,0.124 0.247,0.252 0.375,0.375 0.042,0.042 0.083,0.083 0.125,0.125 0.127,0.124 0.247,0.252 0.375,0.375 0.042,0.042 0.083,0.083 0.125,0.125 0.127,0.124 0.247,0.252 0.375,0.375 0.042,0.042 0.083,0.083 0.125,0.125 0.127,0.124 0.247,0.252 0.375,0.375 0.042,0.042 0.083,0.083 0.125,0.125 0.127,0.124 0.247,0.252 0.375,0.375 0.042,0.042 0.083,0.083 0.125,0.125 0.127,0.124 0.247,0.252 0.375,0.375 0.042,0.042 0.083,0.083 0.125,0.125 0.127,0.124 0.247,0.252 0.375,0.375 0.042,0.042 0.083,0.083 0.125,0.125 0.127,0.124 0.247,0.252 0.375,0.375 0.042,0.042 0.083,0.083 0.125,0.125 0.127,0.124 0.247,0.252 0.375,0.375 0.042,0.042 0.083,0.083 0.125,0.125 0.127,0.124 0.247,0.252 0.375,0.375 0.042,0.042 0.083,0.083 0.125,0.125 0.01,0.011 0.021,0.02 0.031,0.031 0.116,0.113 0.226,0.231 0.344,0.344 0.042,0.042 0.083,0.083 0.125,0.125 0.01,0.011 0.021,0.02 0.031,0.031 0.01,0.011 0.021,0.021 0.031,0.031 0.106,0.103 0.206,0.21 0.313,0.313 0.042,0.042 0.083,0.083 0.125,0.125 0.01,0.011 0.021,0.02 0.031,0.031 0.031,0.031 0.063,0.062 0.094,0.094 0.01,0.011 0.021,0.021 0.031,0.031 0.069,0.067 0.118,0.152 0.188,0.219 0.158,0.155 0.309,0.316 0.469,0.469 0.167,0.164 0.33,0.338 0.5,0.5 0.236,0.232 0.479,0.46 0.719,0.688 0.074,0.072 0.144,0.147 0.219,0.219 0.168,0.166 0.33,0.336 0.5,0.5 0.168,0.166 0.33,0.336 0.5,0.5 0.168,0.166 0.33,0.336 0.5,0.5 0.168,0.166 0.33,0.336 0.5,0.5 0.168,0.166 0.33,0.336 0.5,0.5 0.168,0.166 0.33,0.336 0.5,0.5 0.031,0.031 0.063,0.062 0.094,0.094 0.169,0.165 0.329,0.337 0.5,0.5 0.042,0.042 0.083,0.083 0.125,0.125 0.127,0.124 0.247,0.252 0.375,0.375 0.042,0.042 0.083,0.083 0.125,0.125 0.127,0.124 0.247,0.252 0.375,0.375 0.042,0.042 0.083,0.083 0.125,0.125 0.127,0.124 0.247,0.252 0.375,0.375 0.042,0.042 0.083,0.083 0.125,0.125 0.127,0.124 0.247,0.252 0.375,0.375 0.042,0.042 0.083,0.083 0.125,0.125 0.127,0.124 0.247,0.252 0.375,0.375 0.042,0.042 0.083,0.083 0.125,0.125 0.127,0.124 0.247,0.252 0.375,0.375 0.042,0.042 0.083,0.083 0.125,0.125 0.127,0.124 0.247,0.252 0.375,0.375 0.042,0.042 0.083,0.083 0.125,0.125 0.127,0.124 0.247,0.252 0.375,0.375 0.042,0.042 0.083,0.083 0.125,0.125 0.127,0.124 0.247,0.252 0.375,0.375 0.042,0.042 0.083,0.083 0.125,0.125 0.127,0.124 0.247,0.252 0.375,0.375 0.042,0.042 0.083,0.083 0.125,0.125 0.127,0.124 0.247,0.252 0.375,0.375 0.042,0.042 0.083,0.083 0.125,0.125 0.01,0.011 0.021,0.02 0.031,0.031 0.116,0.113 0.226,0.231 0.344,0.344 0.042,0.042 0.083,0.083 0.125,0.125 0.01,0.011 0.021,0.02 0.031,0.031 0.01,0.011 0.021,0.021 0.031,0.031 0.106,0.103 0.206,0.21 0.313,0.313 0.042,0.042 0.083,0.083 0.125,0.125 0.01,0.011 0.021,0.02 0.031,0.031 0.031,0.031 0.063,0.062 0.094,0.094 0.01,0.011 0.021,0.021 0.031,0.031 0.069,0.067 0.118,0.152 0.188,0.219 0.158,0.155 0.309,0.316 0.469,0.469 0.167,0.164 0.33,0.338 0.5,0.5 0.236,0.232 0.479,0.46 0.719,0.688 0.074,0.072 0.144,0.147 0.219,0.219 0.168,0.166 0.33,0.336 0.5,0.5 0.168,0.166 0.33,0.336 0.5,0.5 0.168,0.166 0.33,0.336 0.5,0.5 0.168,0.166 0.33,0.336 0.5,0.5 0.168,0.166 0.33,0.336 0.5,0.5 0.168,0.166 0.33,0.336 0.5,0.5 0.031,0.031 0.063,0.062 0.094,0.094 0.169,0.165 0.329,0.337 0.5,0.5 0.042,0.042 0.083,0.083 0.125,0.125 0.127,0.124 0.247,0.252 0.375,0.375 0.042,0.042 0.083,0.083 0.125,0.125 0.127,0.124 0.247,0.252 0.375,0.375 0.042,0.042 0.083,0.083 0.125,0.125 0.127,0.124 0.247,0.252 0.375,0.375 0.042,0.042 0.083,0.083 0.125,0.125 0.127,0.124 0.247,0.252 0.375,0.375 0.042,0.042 0.083,0.083 0.125,0.125 0.127,0.124 0.247,0.252 0.375,0.375 0.042,0.042 0.083,0.083 0.125,0.125 0.127,0.124 0.247,0.252 0.375,0.375 0.042,0.042 0.083,0.083 0.125,0.125 0.127,0.124 0.247,0.252 0.375,0.375 0.042,0.042 0.083,0.083 0.125,0.125 0.127,0.124 0.247,0.252 0.375,0.375 0.042,0.042 0.083,0.083 0.125,0.125 0.127,0.124 0.247,0.252 0.375,0.375 0.042,0.042 0.083,0.083 0.125,0.125 0.127,0.124 0.247,0.252 0.375,0.375 0.042,0.042 0.083,0.083 0.125,0.125 0.127,0.124 0.247,0.252 0.375,0.375 0.042,0.042 0.083,0.083 0.125,0.125 0.01,0.011 0.021,0.02 0.031,0.031 0.116,0.113 0.226,0.231 0.344,0.344 0.042,0.042 0.083,0.083 0.125,0.125 0.01,0.011 0.021,0.02 0.031,0.031 0.01,0.011 0.021,0.021 0.031,0.031 0.106,0.103 0.206,0.21 0.313,0.313 0.042,0.042 0.083,0.083 0.125,0.125 0.01,0.011 0.021,0.02 0.031,0.031 0.031,0.031 0.063,0.062 0.094,0.094 0.01,0.011 0.021,0.021 0.031,0.031 0.069,0.067 0.118,0.152 0.188,0.219 0.158,0.155 0.309,0.316 0.469,0.469 0.167,0.164 0.33,0.338 0.5,0.5 0.236,0.232 0.479,0.46 0.719,0.688 0.074,0.072 0.144,0.147 0.219,0.219 0.168,0.166 0.33,0.336 0.5,0.5 0.168,0.166 0.33,0.336 0.5,0.5 0.168,0.166 0.33,0.336 0.5,0.5 0.168,0.166 0.33,0.336 0.5,0.5 0.168,0.166 0.33,0.336 0.5,0.5 0.168,0.166 0.33,0.336 0.5,0.5 0.031,0.031 0.063,0.062 0.094,0.094 0.169,0.166 0.328,0.336 0.5,0.5 0.042,0.042 0.083,0.083 0.125,0.125 0.127,0.124 0.247,0.252 0.375,0.375 0.042,0.042 0.083,0.083 0.125,0.125 0.127,0.124 0.247,0.252 0.375,0.375 0.042,0.042 0.083,0.083 0.125,0.125 0.127,0.124 0.247,0.252 0.375,0.375 0.042,0.042 0.083,0.083 0.125,0.125 0.127,0.124 0.247,0.252 0.375,0.375 0.042,0.042 0.083,0.083 0.125,0.125 0.127,0.124 0.247,0.252 0.375,0.375 0.042,0.042 0.083,0.083 0.125,0.125 0.127,0.124 0.247,0.252 0.375,0.375 0.042,0.042 0.083,0.083 0.125,0.125 0.127,0.124 0.247,0.252 0.375,0.375 0.042,0.042 0.083,0.083 0.125,0.125 0.127,0.124 0.247,0.252 0.375,0.375 0.042,0.042 0.083,0.083 0.125,0.125 0.127,0.124 0.247,0.252 0.375,0.375 0.042,0.042 0.083,0.083 0.125,0.125 0.127,0.124 0.247,0.252 0.375,0.375 0.042,0.042 0.083,0.083 0.125,0.125 0.127,0.124 0.247,0.252 0.375,0.375 0.042,0.042 0.083,0.083 0.125,0.125 0.01,0.011 0.021,0.02 0.031,0.031 0.116,0.113 0.226,0.231 0.344,0.344 0.042,0.042 0.083,0.083 0.125,0.125 0.01,0.011 0.021,0.02 0.031,0.031 0.01,0.011 0.021,0.021 0.031,0.031 0.106,0.103 0.206,0.21 0.313,0.313 0.042,0.042 0.083,0.083 0.125,0.125 0.01,0.011 0.021,0.02 0.031,0.031 0.031,0.031 0.063,0.062 0.094,0.094 0.01,0.011 0.021,0.021 0.031,0.031 0.069,0.067 0.118,0.152 0.188,0.219 0.158,0.155 0.309,0.316 0.469,0.469 0.167,0.164 0.33,0.338 0.5,0.5 0.236,0.232 0.479,0.46 0.719,0.688 0.074,0.072 0.144,0.147 0.219,0.219 0.168,0.166 0.33,0.336 0.5,0.5 0.168,0.166 0.33,0.336 0.5,0.5 0.168,0.166 0.33,0.336 0.5,0.5 0.168,0.166 0.33,0.336 0.5,0.5 0.168,0.166 0.33,0.336 0.5,0.5 0.168,0.166 0.33,0.336 0.5,0.5 0.031,0.031 0.063,0.062 0.094,0.094 0.169,0.166 0.328,0.336 0.5,0.5 0.042,0.042 0.083,0.083 0.125,0.125 0.127,0.124 0.247,0.252 0.375,0.375 0.042,0.042 0.083,0.083 0.125,0.125 0.127,0.124 0.247,0.252 0.375,0.375 0.042,0.042 0.083,0.083 0.125,0.125 0.127,0.124 0.247,0.252 0.375,0.375 0.042,0.042 0.083,0.083 0.125,0.125 0.127,0.124 0.247,0.252 0.375,0.375 0.042,0.042 0.083,0.083 0.125,0.125 0.127,0.124 0.247,0.252 0.375,0.375 0.042,0.042 0.083,0.083 0.125,0.125 0.127,0.124 0.247,0.252 0.375,0.375 0.042,0.042 0.083,0.083 0.125,0.125 0.127,0.124 0.247,0.252 0.375,0.375 0.042,0.042 0.083,0.083 0.125,0.125 0.127,0.124 0.247,0.252 0.375,0.375 0.042,0.042 0.083,0.083 0.125,0.125 0.127,0.124 0.247,0.252 0.375,0.375 0.042,0.042 0.083,0.083 0.125,0.125 0.127,0.124 0.247,0.252 0.375,0.375 0.042,0.042 0.083,0.083 0.125,0.125 0.127,0.124 0.247,0.252 0.375,0.375 0.042,0.042 0.083,0.083 0.125,0.125 0.127,0.124 0.247,0.252 0.375,0.375 0.042,0.042 0.083,0.083 0.125,0.125 0.01,0.011 0.021,0.02 0.031,0.031 0.116,0.113 0.226,0.231 0.344,0.344 0.042,0.042 0.083,0.083 0.125,0.125 0.01,0.011 0.021,0.02 0.031,0.031 0.01,0.011 0.021,0.021 0.031,0.031 0.101,0.098 0.18,0.215 0.281,0.313 0.168,0.165 0.329,0.337 0.5,0.5 0.158,0.155 0.309,0.316 0.469,0.469 0.167,0.164 0.33,0.338 0.5,0.5 0.236,0.232 0.479,0.46 0.719,0.688 0.074,0.072 0.144,0.147 0.219,0.219 0.168,0.166 0.33,0.336 0.5,0.5 0.168,0.166 0.33,0.336 0.5,0.5 0.168,0.166 0.33,0.336 0.5,0.5 0.168,0.166 0.33,0.336 0.5,0.5 0.168,0.166 0.33,0.336 0.5,0.5 0.031,0.031 0.063,0.062 0.094,0.094 0.169,0.166 0.328,0.336 0.5,0.5 0.042,0.042 0.083,0.083 0.125,0.125 0.127,0.124 0.247,0.252 0.375,0.375 0.042,0.042 0.083,0.083 0.125,0.125 0.127,0.124 0.247,0.252 0.375,0.375 0.042,0.042 0.083,0.083 0.125,0.125 0.127,0.124 0.247,0.252 0.375,0.375 0.042,0.042 0.083,0.083 0.125,0.125 0.106,0.103 0.208,0.209 0.313,0.313 118.13,-3.175 212.91,-99.92 212.91,-218.81 0,-2.246 -0.027,-4.489 -0.094,-6.719 -0.031,-0.001 -0.063,0.001 -0.094,0 0.019,-0.027 0.062,-0.05 0.094,-0.094 -0.004,-0.125 -0.027,-0.25 -0.031,-0.375 -0.188,-0.007 -0.376,-0.026 -0.563,-0.031 0.082,-0.119 0.344,-0.469 0.344,-0.469 -0.279,-0.003 -0.564,-0.023 -0.844,-0.031 0.082,-0.119 0.344,-0.469 0.344,-0.469 -0.279,-0.003 -0.564,-0.023 -0.844,-0.031 0.082,-0.119 0.344,-0.469 0.344,-0.469 -0.279,-0.003 -0.564,-0.023 -0.844,-0.031 0.08,-0.116 0.344,-0.469 0.344,-0.469 -0.279,-0.003 -0.564,-0.023 -0.844,-0.031 0.08,-0.116 0.344,-0.469 0.344,-0.469 -0.279,-0.003 -0.564,-0.023 -0.844,-0.031 0.08,-0.116 0.344,-0.469 0.344,-0.469 -0.279,-0.003 -0.564,-0.023 -0.844,-0.031 0.08,-0.116 0.344,-0.469 0.344,-0.469 -0.285,-0.004 -0.558,-0.023 -0.844,-0.031 0.08,-0.116 0.344,-0.469 0.344,-0.469 -0.285,-0.004 -0.558,-0.023 -0.844,-0.031 0.08,-0.116 0.344,-0.469 0.344,-0.469 -0.285,-0.004 -0.558,-0.023 -0.844,-0.031 0.08,-0.116 0.344,-0.469 0.344,-0.469 -0.285,-0.004 -0.558,-0.023 -0.844,-0.031 0.08,-0.116 0.344,-0.469 0.344,-0.469 -0.285,-0.004 -0.558,-0.023 -0.844,-0.031 0.08,-0.116 0.344,-0.469 0.344,-0.469 -0.285,-0.004 -0.558,-0.023 -0.844,-0.031 0.08,-0.116 0.344,-0.469 0.344,-0.469 -0.274,-0.003 -0.538,-0.023 -0.813,-0.031 0.071,-0.103 0.313,-0.438 0.313,-0.438 -0.274,-0.003 -0.538,-0.023 -0.813,-0.031 0.081,-0.117 0.344,-0.469 0.344,-0.469 -0.279,-0.003 -0.564,-0.023 -0.844,-0.031 0.081,-0.117 0.344,-0.469 0.344,-0.469 -0.279,-0.003 -0.564,-0.023 -0.844,-0.031 0.081,-0.117 0.344,-0.469 0.344,-0.469 -0.279,-0.003 -0.564,-0.023 -0.844,-0.031 0.081,-0.117 0.344,-0.469 0.344,-0.469 -0.279,-0.003 -0.564,-0.023 -0.844,-0.031 0.082,-0.119 0.344,-0.469 0.344,-0.469 -0.279,-0.003 -0.564,-0.023 -0.844,-0.031 0.082,-0.119 0.344,-0.469 0.344,-0.469 -0.279,-0.003 -0.564,-0.023 -0.844,-0.031 0.082,-0.119 0.344,-0.469 0.344,-0.469 -0.279,-0.003 -0.564,-0.023 -0.844,-0.031 0.082,-0.119 0.344,-0.469 0.344,-0.469 -0.279,-0.003 -0.564,-0.023 -0.844,-0.031 0.082,-0.119 0.344,-0.469 0.344,-0.469 -0.279,-0.003 -0.564,-0.023 -0.844,-0.031 0.082,-0.119 0.344,-0.469 0.344,-0.469 -0.279,-0.003 -0.564,-0.023 -0.844,-0.031 0.082,-0.119 0.344,-0.469 0.344,-0.469 -0.279,-0.003 -0.564,-0.023 -0.844,-0.031 0.082,-0.119 0.344,-0.469 0.344,-0.469 -0.279,-0.003 -0.564,-0.023 -0.844,-0.031 0.082,-0.119 0.344,-0.469 0.344,-0.469 -0.279,-0.003 -0.564,-0.023 -0.844,-0.031 0.082,-0.119 0.344,-0.469 0.344,-0.469 -0.279,-0.003 -0.564,-0.023 -0.844,-0.031 0.08,-0.116 0.344,-0.469 0.344,-0.469 -0.279,-0.003 -0.564,-0.023 -0.844,-0.031 0.08,-0.116 0.344,-0.469 0.344,-0.469 -0.279,-0.003 -0.564,-0.023 -0.844,-0.031 0.08,-0.116 0.344,-0.469 0.344,-0.469 -0.279,-0.003 -0.564,-0.023 -0.844,-0.031 0.08,-0.116 0.344,-0.469 0.344,-0.469 -0.285,-0.004 -0.558,-0.023 -0.844,-0.031 0.08,-0.116 0.344,-0.469 0.344,-0.469 -0.285,-0.004 -0.558,-0.023 -0.844,-0.031 0.08,-0.116 0.344,-0.469 0.344,-0.469 -0.285,-0.004 -0.558,-0.023 -0.844,-0.031 0.08,-0.116 0.344,-0.469 0.344,-0.469 -0.285,-0.004 -0.558,-0.023 -0.844,-0.031 0.08,-0.116 0.344,-0.469 0.344,-0.469 -0.285,-0.004 -0.558,-0.023 -0.844,-0.031 0.08,-0.116 0.344,-0.469 0.344,-0.469 -0.285,-0.004 -0.558,-0.023 -0.844,-0.031 0.08,-0.116 0.344,-0.469 0.344,-0.469 -0.274,-0.003 -0.538,-0.023 -0.813,-0.031 0.071,-0.103 0.313,-0.438 0.313,-0.438 -0.274,-0.003 -0.538,-0.023 -0.813,-0.031 0.081,-0.117 0.344,-0.469 0.344,-0.469 -0.279,-0.003 -0.564,-0.023 -0.844,-0.031 0.081,-0.117 0.344,-0.469 0.344,-0.469 -0.279,-0.003 -0.564,-0.023 -0.844,-0.031 0.081,-0.117 0.344,-0.469 0.344,-0.469 -0.279,-0.003 -0.564,-0.023 -0.844,-0.031 0.081,-0.117 0.344,-0.469 0.344,-0.469 -0.279,-0.003 -0.564,-0.023 -0.844,-0.031 0.082,-0.119 0.344,-0.469 0.344,-0.469 -0.279,-0.003 -0.564,-0.023 -0.844,-0.031 0.082,-0.119 0.344,-0.469 0.344,-0.469 -0.279,-0.003 -0.564,-0.023 -0.844,-0.031 0.082,-0.119 0.344,-0.469 0.344,-0.469 -0.279,-0.003 -0.564,-0.023 -0.844,-0.031 0.082,-0.119 0.344,-0.469 0.344,-0.469 -0.279,-0.003 -0.564,-0.023 -0.844,-0.031 0.082,-0.119 0.344,-0.469 0.344,-0.469 -0.279,-0.003 -0.564,-0.023 -0.844,-0.031 0.082,-0.119 0.344,-0.469 0.344,-0.469 -0.279,-0.003 -0.564,-0.023 -0.844,-0.031 0.082,-0.119 0.344,-0.469 0.344,-0.469 -0.279,-0.003 -0.564,-0.023 -0.844,-0.031 0.082,-0.119 0.344,-0.469 0.344,-0.469 -0.279,-0.003 -0.564,-0.023 -0.844,-0.031 0.082,-0.119 0.344,-0.469 0.344,-0.469 -0.279,-0.003 -0.564,-0.023 -0.844,-0.031 0.082,-0.119 0.344,-0.469 0.344,-0.469 -0.279,-0.003 -0.564,-0.023 -0.844,-0.031 0.08,-0.116 0.344,-0.469 0.344,-0.469 -0.279,-0.003 -0.564,-0.023 -0.844,-0.031 0.08,-0.116 0.344,-0.469 0.344,-0.469 -0.279,-0.003 -0.564,-0.023 -0.844,-0.031 0.08,-0.116 0.344,-0.469 0.344,-0.469 -0.279,-0.003 -0.564,-0.023 -0.844,-0.031 0.08,-0.116 0.344,-0.469 0.344,-0.469 -0.285,-0.004 -0.558,-0.023 -0.844,-0.031 0.08,-0.116 0.344,-0.469 0.344,-0.469 -0.285,-0.004 -0.558,-0.023 -0.844,-0.031 0.08,-0.116 0.344,-0.469 0.344,-0.469 -0.285,-0.004 -0.558,-0.023 -0.844,-0.031 0.08,-0.116 0.344,-0.469 0.344,-0.469 -0.285,-0.004 -0.558,-0.023 -0.844,-0.031 0.08,-0.116 0.344,-0.469 0.344,-0.469 -0.285,-0.004 -0.558,-0.023 -0.844,-0.031 0.08,-0.116 0.344,-0.469 0.344,-0.469 -0.285,-0.004 -0.558,-0.023 -0.844,-0.031 0.08,-0.116 0.344,-0.469 0.344,-0.469 -0.274,-0.003 -0.538,-0.023 -0.813,-0.031 0.071,-0.103 0.313,-0.438 0.313,-0.438 -0.274,-0.003 -0.538,-0.023 -0.813,-0.031 0.081,-0.117 0.344,-0.469 0.344,-0.469 -0.279,-0.003 -0.564,-0.023 -0.844,-0.031 0.081,-0.117 0.344,-0.469 0.344,-0.469 -0.279,-0.003 -0.564,-0.023 -0.844,-0.031 0.081,-0.117 0.344,-0.469 0.344,-0.469 -0.279,-0.003 -0.564,-0.023 -0.844,-0.031 0.081,-0.117 0.344,-0.469 0.344,-0.469 -0.279,-0.003 -0.564,-0.023 -0.844,-0.031 0.082,-0.119 0.344,-0.469 0.344,-0.469 -0.279,-0.003 -0.564,-0.023 -0.844,-0.031 0.082,-0.119 0.344,-0.469 0.344,-0.469 -0.279,-0.003 -0.564,-0.023 -0.844,-0.031 0.082,-0.119 0.344,-0.469 0.344,-0.469 -0.279,-0.003 -0.564,-0.023 -0.844,-0.031 0.082,-0.119 0.344,-0.469 0.344,-0.469 -0.279,-0.003 -0.564,-0.023 -0.844,-0.031 0.082,-0.119 0.344,-0.469 0.344,-0.469 -0.279,-0.003 -0.564,-0.023 -0.844,-0.031 0.082,-0.119 0.344,-0.469 0.344,-0.469 -0.279,-0.003 -0.564,-0.023 -0.844,-0.031 0.082,-0.119 0.344,-0.469 0.344,-0.469 -0.279,-0.003 -0.564,-0.023 -0.844,-0.031 0.082,-0.119 0.344,-0.469 0.344,-0.469 -0.279,-0.003 -0.564,-0.023 -0.844,-0.031 0.082,-0.119 0.344,-0.469 0.344,-0.469 -0.279,-0.003 -0.564,-0.023 -0.844,-0.031 0.082,-0.119 0.344,-0.469 0.344,-0.469 -0.279,-0.003 -0.564,-0.023 -0.844,-0.031 0.08,-0.116 0.344,-0.469 0.344,-0.469 -0.279,-0.003 -0.564,-0.023 -0.844,-0.031 0.08,-0.116 0.344,-0.469 0.344,-0.469 -0.279,-0.003 -0.564,-0.023 -0.844,-0.031 0.08,-0.116 0.344,-0.469 0.344,-0.469 -0.279,-0.003 -0.564,-0.023 -0.844,-0.031 0.08,-0.116 0.344,-0.469 0.344,-0.469 -0.285,-0.004 -0.558,-0.023 -0.844,-0.031 0.08,-0.116 0.344,-0.469 0.344,-0.469 -0.285,-0.004 -0.558,-0.023 -0.844,-0.031 0.08,-0.116 0.344,-0.469 0.344,-0.469 -0.285,-0.004 -0.558,-0.023 -0.844,-0.031 0.08,-0.116 0.344,-0.469 0.344,-0.469 -0.285,-0.004 -0.558,-0.023 -0.844,-0.031 0.08,-0.116 0.344,-0.469 0.344,-0.469 -0.285,-0.004 -0.558,-0.023 -0.844,-0.031 0.08,-0.116 0.344,-0.469 0.344,-0.469 -0.285,-0.004 -0.558,-0.023 -0.844,-0.031 0.08,-0.116 0.344,-0.469 0.344,-0.469 -0.274,-0.003 -0.538,-0.023 -0.813,-0.031 0.071,-0.103 0.313,-0.438 0.313,-0.438 -0.274,-0.003 -0.538,-0.023 -0.813,-0.031 0.081,-0.117 0.344,-0.469 0.344,-0.469 -0.279,-0.003 -0.564,-0.023 -0.844,-0.031 0.081,-0.117 0.344,-0.469 0.344,-0.469 -0.279,-0.003 -0.564,-0.023 -0.844,-0.031 0.081,-0.117 0.344,-0.469 0.344,-0.469 -0.279,-0.003 -0.564,-0.023 -0.844,-0.031 0.081,-0.117 0.344,-0.469 0.344,-0.469 -0.279,-0.003 -0.564,-0.023 -0.844,-0.031 0.082,-0.119 0.344,-0.469 0.344,-0.469 -0.279,-0.003 -0.564,-0.023 -0.844,-0.031 0.082,-0.119 0.344,-0.469 0.344,-0.469 -0.279,-0.003 -0.564,-0.023 -0.844,-0.031 0.082,-0.119 0.344,-0.469 0.344,-0.469 -0.279,-0.003 -0.564,-0.023 -0.844,-0.031 0.082,-0.119 0.344,-0.469 0.344,-0.469 -0.279,-0.003 -0.564,-0.023 -0.844,-0.031 0.082,-0.119 0.344,-0.469 0.344,-0.469 -0.279,-0.003 -0.564,-0.023 -0.844,-0.031 0.082,-0.119 0.344,-0.469 0.344,-0.469 -0.279,-0.003 -0.564,-0.023 -0.844,-0.031 0.082,-0.119 0.344,-0.469 0.344,-0.469 -0.279,-0.003 -0.564,-0.023 -0.844,-0.031 0.082,-0.119 0.344,-0.469 0.344,-0.469 -0.279,-0.003 -0.564,-0.023 -0.844,-0.031 0.082,-0.119 0.344,-0.469 0.344,-0.469 -0.279,-0.003 -0.564,-0.023 -0.844,-0.031 0.082,-0.119 0.344,-0.469 0.344,-0.469 -0.279,-0.003 -0.564,-0.023 -0.844,-0.031 0.08,-0.116 0.344,-0.469 0.344,-0.469 -0.279,-0.003 -0.564,-0.023 -0.844,-0.031 0.08,-0.116 0.344,-0.469 0.344,-0.469 -0.279,-0.003 -0.564,-0.023 -0.844,-0.031 0.08,-0.116 0.344,-0.469 0.344,-0.469 -0.279,-0.003 -0.564,-0.023 -0.844,-0.031 0.08,-0.116 0.344,-0.469 0.344,-0.469 -0.285,-0.004 -0.558,-0.023 -0.844,-0.031 0.08,-0.116 0.344,-0.469 0.344,-0.469 -0.285,-0.004 -0.558,-0.023 -0.844,-0.031 0.08,-0.116 0.344,-0.469 0.344,-0.469 -0.285,-0.004 -0.558,-0.023 -0.844,-0.031 0.08,-0.116 0.344,-0.469 0.344,-0.469 -0.285,-0.004 -0.558,-0.023 -0.844,-0.031 0.08,-0.116 0.344,-0.469 0.344,-0.469 -0.285,-0.004 -0.558,-0.023 -0.844,-0.031 0.08,-0.116 0.344,-0.469 0.344,-0.469 -0.285,-0.004 -0.558,-0.023 -0.844,-0.031 0.08,-0.116 0.344,-0.469 0.344,-0.469 -0.274,-0.003 -0.538,-0.023 -0.813,-0.031 0.071,-0.103 0.313,-0.438 0.313,-0.438 -0.274,-0.003 -0.538,-0.023 -0.813,-0.031 0.081,-0.117 0.344,-0.469 0.344,-0.469 -0.279,-0.003 -0.564,-0.023 -0.844,-0.031 0.081,-0.117 0.344,-0.469 0.344,-0.469 -0.279,-0.003 -0.564,-0.023 -0.844,-0.031 0.081,-0.117 0.344,-0.469 0.344,-0.469 -0.279,-0.003 -0.564,-0.023 -0.844,-0.031 0.081,-0.117 0.344,-0.469 0.344,-0.469 -0.279,-0.003 -0.564,-0.023 -0.844,-0.031 0.081,-0.117 0.344,-0.469 0.344,-0.469 -0.279,-0.003 -0.564,-0.023 -0.844,-0.031 0.082,-0.119 0.344,-0.469 0.344,-0.469 -0.279,-0.003 -0.564,-0.023 -0.844,-0.031 0.082,-0.119 0.344,-0.469 0.344,-0.469 -0.279,-0.003 -0.564,-0.023 -0.844,-0.031 0.082,-0.119 0.344,-0.469 0.344,-0.469 -0.279,-0.003 -0.564,-0.023 -0.844,-0.031 0.082,-0.119 0.344,-0.469 0.344,-0.469 -0.279,-0.003 -0.564,-0.023 -0.844,-0.031 0.082,-0.119 0.344,-0.469 0.344,-0.469 -0.279,-0.003 -0.564,-0.023 -0.844,-0.031 0.082,-0.119 0.344,-0.469 0.344,-0.469 -0.279,-0.003 -0.564,-0.023 -0.844,-0.031 0.082,-0.119 0.344,-0.469 0.344,-0.469 -0.279,-0.003 -0.564,-0.023 -0.844,-0.031 0.082,-0.119 0.344,-0.469 0.344,-0.469 -0.279,-0.003 -0.564,-0.023 -0.844,-0.031 0.082,-0.119 0.344,-0.469 0.344,-0.469 -0.279,-0.003 -0.564,-0.023 -0.844,-0.031 0.08,-0.116 0.344,-0.469 0.344,-0.469 -0.279,-0.003 -0.564,-0.023 -0.844,-0.031 0.08,-0.116 0.344,-0.469 0.344,-0.469 -0.279,-0.003 -0.564,-0.023 -0.844,-0.031 0.08,-0.116 0.344,-0.469 0.344,-0.469 -0.279,-0.003 -0.564,-0.023 -0.844,-0.031 0.08,-0.116 0.344,-0.469 0.344,-0.469 -0.285,-0.004 -0.558,-0.023 -0.844,-0.031 0.08,-0.116 0.344,-0.469 0.344,-0.469 -0.285,-0.004 -0.558,-0.023 -0.844,-0.031 0.08,-0.116 0.344,-0.469 0.344,-0.469 -0.285,-0.004 -0.558,-0.023 -0.844,-0.031 0.08,-0.116 0.344,-0.469 0.344,-0.469 -0.285,-0.004 -0.558,-0.023 -0.844,-0.031 0.08,-0.116 0.344,-0.469 0.344,-0.469 -0.285,-0.004 -0.558,-0.023 -0.844,-0.031 0.08,-0.116 0.344,-0.469 0.344,-0.469 -0.285,-0.004 -0.558,-0.023 -0.844,-0.031 0.08,-0.116 0.344,-0.469 0.344,-0.469 -0.274,-0.003 -0.538,-0.023 -0.813,-0.031 0.071,-0.103 0.313,-0.438 0.313,-0.438 -0.274,-0.003 -0.538,-0.023 -0.813,-0.031 0.081,-0.117 0.344,-0.469 0.344,-0.469 -0.279,-0.003 -0.564,-0.023 -0.844,-0.031 0.081,-0.117 0.344,-0.469 0.344,-0.469 -0.279,-0.003 -0.564,-0.023 -0.844,-0.031 0.081,-0.117 0.344,-0.469 0.344,-0.469 -0.279,-0.003 -0.564,-0.023 -0.844,-0.031 0.081,-0.117 0.344,-0.469 0.344,-0.469 -0.279,-0.003 -0.564,-0.023 -0.844,-0.031 0.081,-0.117 0.344,-0.469 0.344,-0.469 -0.279,-0.003 -0.564,-0.023 -0.844,-0.031 0.082,-0.119 0.344,-0.469 0.344,-0.469 -0.279,-0.003 -0.564,-0.023 -0.844,-0.031 0.082,-0.119 0.344,-0.469 0.344,-0.469 -0.279,-0.003 -0.564,-0.023 -0.844,-0.031 0.082,-0.119 0.344,-0.469 0.344,-0.469 -0.279,-0.003 -0.564,-0.023 -0.844,-0.031 0.082,-0.119 0.344,-0.469 0.344,-0.469 -0.279,-0.003 -0.564,-0.023 -0.844,-0.031 0.082,-0.119 0.344,-0.469 0.344,-0.469 -0.279,-0.003 -0.564,-0.023 -0.844,-0.031 0.082,-0.119 0.344,-0.469 0.344,-0.469 -0.279,-0.003 -0.564,-0.023 -0.844,-0.031 0.082,-0.119 0.344,-0.469 0.344,-0.469 -0.279,-0.003 -0.564,-0.023 -0.844,-0.031 0.082,-0.119 0.344,-0.469 0.344,-0.469 -0.279,-0.003 -0.564,-0.023 -0.844,-0.031 0.082,-0.119 0.344,-0.469 0.344,-0.469 -0.279,-0.003 -0.564,-0.023 -0.844,-0.031 0.08,-0.116 0.344,-0.469 0.344,-0.469 -0.279,-0.003 -0.564,-0.023 -0.844,-0.031 0.08,-0.116 0.344,-0.469 0.344,-0.469 -0.279,-0.003 -0.564,-0.023 -0.844,-0.031 0.08,-0.116 0.344,-0.469 0.344,-0.469 -0.279,-0.003 -0.564,-0.023 -0.844,-0.031 0.08,-0.116 0.344,-0.469 0.344,-0.469 -0.285,-0.004 -0.558,-0.023 -0.844,-0.031 0.08,-0.116 0.344,-0.469 0.344,-0.469 -0.285,-0.004 -0.558,-0.023 -0.844,-0.031 0.08,-0.116 0.344,-0.469 0.344,-0.469 -0.285,-0.004 -0.558,-0.023 -0.844,-0.031 0.08,-0.116 0.344,-0.469 0.344,-0.469 -0.285,-0.004 -0.558,-0.023 -0.844,-0.031 0.08,-0.116 0.344,-0.469 0.344,-0.469 -0.285,-0.004 -0.558,-0.023 -0.844,-0.031 0.08,-0.116 0.344,-0.469 0.344,-0.469 -0.285,-0.004 -0.558,-0.023 -0.844,-0.031 0.08,-0.116 0.344,-0.469 0.344,-0.469 -0.274,-0.003 -0.538,-0.023 -0.813,-0.031 0.071,-0.103 0.313,-0.438 0.313,-0.438 -0.274,-0.003 -0.538,-0.023 -0.813,-0.031 0.081,-0.117 0.344,-0.469 0.344,-0.469 -0.279,-0.003 -0.564,-0.023 -0.844,-0.031 0.081,-0.117 0.344,-0.469 0.344,-0.469 -0.279,-0.003 -0.564,-0.023 -0.844,-0.031 0.081,-0.117 0.344,-0.469 0.344,-0.469 -0.279,-0.003 -0.564,-0.023 -0.844,-0.031 0.081,-0.117 0.344,-0.469 0.344,-0.469 -0.279,-0.003 -0.564,-0.023 -0.844,-0.031 0.081,-0.117 0.344,-0.469 0.344,-0.469 -0.279,-0.003 -0.564,-0.023 -0.844,-0.031 0.082,-0.119 0.344,-0.469 0.344,-0.469 -0.279,-0.003 -0.564,-0.023 -0.844,-0.031 0.082,-0.119 0.344,-0.469 0.344,-0.469 -0.279,-0.003 -0.564,-0.023 -0.844,-0.031 0.082,-0.119 0.344,-0.469 0.344,-0.469 -0.279,-0.003 -0.564,-0.023 -0.844,-0.031 0.082,-0.119 0.344,-0.469 0.344,-0.469 -0.279,-0.003 -0.564,-0.023 -0.844,-0.031 0.082,-0.119 0.344,-0.469 0.344,-0.469 -0.279,-0.003 -0.564,-0.023 -0.844,-0.031 0.082,-0.119 0.344,-0.469 0.344,-0.469 -0.279,-0.003 -0.564,-0.023 -0.844,-0.031 0.082,-0.119 0.344,-0.469 0.344,-0.469 -0.279,-0.003 -0.564,-0.023 -0.844,-0.031 0.082,-0.119 0.344,-0.469 0.344,-0.469 -0.279,-0.003 -0.564,-0.023 -0.844,-0.031 0.082,-0.119 0.344,-0.469 0.344,-0.469 -0.279,-0.003 -0.564,-0.023 -0.844,-0.031 0.08,-0.116 0.344,-0.469 0.344,-0.469 -0.279,-0.003 -0.564,-0.023 -0.844,-0.031 0.08,-0.116 0.344,-0.469 0.344,-0.469 -0.279,-0.003 -0.564,-0.023 -0.844,-0.031 0.08,-0.116 0.344,-0.469 0.344,-0.469 -0.279,-0.003 -0.564,-0.023 -0.844,-0.031 0.08,-0.116 0.344,-0.469 0.344,-0.469 -0.285,-0.004 -0.558,-0.023 -0.844,-0.031 0.08,-0.116 0.344,-0.469 0.344,-0.469 -0.285,-0.004 -0.558,-0.023 -0.844,-0.031 0.08,-0.116 0.344,-0.469 0.344,-0.469 -0.285,-0.004 -0.558,-0.023 -0.844,-0.031 0.08,-0.116 0.344,-0.469 0.344,-0.469 -0.285,-0.004 -0.558,-0.023 -0.844,-0.031 0.08,-0.116 0.344,-0.469 0.344,-0.469 -24.766,-0.308 -51.929,-20.43 -80.906,-20.281"
     inkscape:connector-curvature="0"
     id="path6"
     style="color:#000000;fill-opacity:0.23500001" />
  <g
     id="g8"
     style="fill-rule:evenodd">
    <path
       d="M 256,1 C 115.17,1 1,115.17 1,256 1,396.83 115.17,511 256,511 396.83,511 511,396.83 511,256 511,115.17 396.83,1 256,1 m 8.827,44.931 c 120.9,0 218.9,98 218.9,218.9 0,120.9 -98,218.9 -218.9,218.9 -120.9,0 -218.93,-98 -218.93,-218.9 0,-120.9 98.03,-218.9 218.93,-218.9"
       inkscape:connector-curvature="0"
       id="path10"
       style="fill-opacity:0.06700003" />
    <g
       id="g12"
       style="fill-opacity:0.12900002">
      <path
         d="m 256,4.433 c -138.94,0 -251.57,112.63 -251.57,251.57 0,138.94 112.63,251.57 251.57,251.57 138.94,0 251.57,-112.63 251.57,-251.57 C 507.57,117.063 394.94,4.433 256,4.433 m 5.885,38.556 c 120.9,0 218.9,98 218.9,218.9 0,120.9 -98,218.9 -218.9,218.9 -120.9,0 -218.93,-98 -218.93,-218.9 0,-120.9 98.03,-218.9 218.93,-218.9"
         inkscape:connector-curvature="0"
         id="path14" />
      <path
         d="m 256,8.356 c -136.77,0 -247.64,110.87 -247.64,247.64 0,136.77 110.87,247.64 247.64,247.64 136.77,0 247.64,-110.87 247.64,-247.64 C 503.64,119.226 392.77,8.356 256,8.356 m 2.942,31.691 c 120.9,0 218.9,98 218.9,218.9 0,120.9 -98,218.9 -218.9,218.9 -120.9,0 -218.93,-98 -218.93,-218.9 0,-120.9 98.03,-218.9 218.93,-218.9"
         inkscape:connector-curvature="0"
         id="path16" />
    </g>
    <path
       d="m 253.04,7.859 c -135.42,0 -245.19,109.78 -245.19,245.19 0,135.42 109.78,245.19 245.19,245.19 135.42,0 245.19,-109.78 245.19,-245.19 0,-135.42 -109.78,-245.19 -245.19,-245.19 z m 0,26.297 c 120.9,0 218.9,98 218.9,218.9 0,120.9 -98,218.9 -218.9,218.9 -120.9,0 -218.93,-98 -218.93,-218.9 0,-120.9 98.03,-218.9 218.93,-218.9 z"
       inkscape:connector-curvature="0"
       id="path18"
       style="fill:#ffffff;stroke:#000000;stroke-width:4.90399981;stroke-opacity:0.31000001" />
  </g>
  <text
     x="729.64001"
     y="231.36"
     id="text20"
     style="font-size:129.22999573px;line-height:125%;letter-spacing:0;word-spacing:0;font-family:Gentium Book Basic">
    <tspan
       x="729.64001"
       y="231.36"
       id="tspan22" />
  </text>
  <text
     x="378.91"
     y="579.25"
     transform="scale(4.0128,0.2492)"
     id="text24"
     style="font-size:46.95399857px;text-anchor:middle;font-family:Arial" />
  <text
     x="1310.91"
     y="151.36"
     id="text26"
     style="font-size:129.22999573px;line-height:125%;letter-spacing:0;word-spacing:0;font-family:Gentium Book Basic">
    <tspan
       x="1310.91"
       y="151.36"
       id="tspan28" />
  </text>
  <text
     x="523.76001"
     y="258.22"
     transform="scale(4.0128,0.2492)"
     id="text30"
     style="font-size:46.95399857px;text-anchor:middle;font-family:Arial" />
  <text
     x="239.33"
     y="-29.900999"
     id="text32"
     style="font-size:129.22999573px;line-height:125%;letter-spacing:0;word-spacing:0;font-family:Gentium Book Basic">
    <tspan
       x="239.33"
       y="-29.900999"
       id="tspan34" />
  </text>
  <text
     x="256.72"
     y="-469.14001"
     transform="scale(4.0128,0.2492)"
     id="text36"
     style="font-size:46.95399857px;text-anchor:middle;font-family:Arial" />
  <text
     x="1337.38"
     y="-246.37"
     id="text38"
     style="font-size:129.22999573px;line-height:125%;letter-spacing:0;word-spacing:0;font-family:Gentium Book Basic">
    <tspan
       x="1337.38"
       y="-246.37"
       id="tspan40" />
  </text>
  <text
     x="530.35999"
     y="-1337.8101"
     transform="scale(4.0128,0.2492)"
     id="text42"
     style="font-size:46.95399857px;text-anchor:middle;font-family:Arial" />
  <text
     x="1918.65"
     y="-326.38"
     id="text44"
     style="font-size:129.22999573px;line-height:125%;letter-spacing:0;word-spacing:0;font-family:Gentium Book Basic">
    <tspan
       x="1918.65"
       y="-326.38"
       id="tspan46" />
  </text>
  <text
     x="675.21002"
     y="-1658.85"
     transform="scale(4.0128,0.2492)"
     id="text48"
     style="font-size:46.95399857px;text-anchor:middle;font-family:Arial" />
  <text
     x="1529.53"
     y="-798.78003"
     id="text50"
     style="font-size:129.22999573px;line-height:125%;letter-spacing:0;word-spacing:0;font-family:Gentium Book Basic">
    <tspan
       x="1529.53"
       y="-798.78003"
       id="tspan52" />
  </text>
  <text
     x="578.23999"
     y="-3554.51"
     transform="scale(4.0128,0.2492)"
     id="text54"
     style="font-size:46.95399857px;text-anchor:middle;font-family:Arial" />
  <text
     x="2110.79"
     y="-878.78003"
     id="text56"
     style="font-size:129.22999573px;line-height:125%;letter-spacing:0;word-spacing:0;font-family:Gentium Book Basic">
    <tspan
       x="2110.79"
       y="-878.78003"
       id="tspan58" />
  </text>
  <text
     x="723.09003"
     y="-3875.54"
     transform="scale(4.0128,0.2492)"
     id="text60"
     style="font-size:46.95399857px;text-anchor:middle;font-family:Arial" />
  <text
     x="277.98999"
     y="535.94"
     id="text62"
     style="font-size:208.33000183px;line-height:125%;letter-spacing:0;word-spacing:0;font-family:Gentium Book Basic">
    <tspan
       x="277.98999"
       y="535.94"
       id="tspan64" />
  </text>
  <path
     d="m 379.32,153.11 c 0,0 -20.554,30.831 -51.39,30.831 -28.731,-5.537 -40.14,-0.825 -41.11,0 v 124.38 c -1.361,26.2 -22.824,52.45 -54.829,64.52 -40.601,15.32 -83.51,1.993 -95.93,-29.855 -12.422,-31.843 10.301,-70.39 50.902,-85.71 31.427,-11.855 60.3,-8.918 79.3,8.877 v -123.32 c 41.11,-27.337 79.32,9.857 113.05,10.277"
     inkscape:connector-curvature="0"
     id="path66"
     style="color:#000000;fill:#ffffff" />
</svg>
