<?xml version="1.0" encoding="UTF-8" standalone="no"?>
<!-- Created with Inkscape (http://www.inkscape.org/) -->

<svg
   xmlns:dc="http://purl.org/dc/elements/1.1/"
   xmlns:cc="http://creativecommons.org/ns#"
   xmlns:rdf="http://www.w3.org/1999/02/22-rdf-syntax-ns#"
   xmlns:svg="http://www.w3.org/2000/svg"
   xmlns="http://www.w3.org/2000/svg"
   xmlns:sodipodi="http://sodipodi.sourceforge.net/DTD/sodipodi-0.dtd"
   xmlns:inkscape="http://www.inkscape.org/namespaces/inkscape"
   version="1.1"
   width="100%"
   height="100%"
   viewBox="0 0 512 512"
   id="svg2"
   inkscape:version="0.48.5 r10040"
   sodipodi:docname="gnash.svg">
  <sodipodi:namedview
     pagecolor="#ffffff"
     bordercolor="#666666"
     borderopacity="1"
     objecttolerance="10"
     gridtolerance="10"
     guidetolerance="10"
     inkscape:pageopacity="0"
     inkscape:pageshadow="2"
     inkscape:window-width="640"
     inkscape:window-height="480"
     id="namedview35"
     showgrid="false"
     inkscape:zoom="0.4609375"
     inkscape:cx="256"
     inkscape:cy="316.51873"
     inkscape:window-x="15"
     inkscape:window-y="39"
     inkscape:window-maximized="0"
     inkscape:current-layer="svg2" />
  <metadata
     id="metadata70">
    <rdf:RDF>
      <cc:Work
         rdf:about="">
        <dc:format>image/svg+xml</dc:format>
        <dc:type
           rdf:resource="http://purl.org/dc/dcmitype/StillImage" />
        <dc:title />
      </cc:Work>
    </rdf:RDF>
  </metadata>
  <defs
     id="defs68" />
  <path
     d="m 489.30073,256.30573 c 0,131.08109 -106.26143,237.34752 -237.34751,237.34752 -131.08109,0 -237.347514,-106.26145 -237.347514,-237.34752 0,-131.08108 106.261444,-237.347513 237.347514,-237.347513 131.08109,0 237.34751,106.261443 237.34751,237.347513"
     inkscape:connector-curvature="0"
     id="path8"
     style="fill:#d23638;fill-rule:evenodd" />
  <path
     d="m 253.06363,112.24913 c -31.86016,0 -59.17045,10.95129 -81.92773,32.79819 -22.75726,21.5435 -35.48851,48.23826 -38.21938,80.09808 -1.21373,14.868 0.60018,27.46194 5.45507,37.77891 2.21636,4.43191 4.98314,8.15981 8.3012,11.21508 0.55502,0.58324 1.10447,1.15416 1.69412,1.69413 0.45268,0.47198 0.91363,0.94578 1.38918,1.38918 0.52539,0.55827 1.06961,1.10725 1.62636,1.62635 0.57448,0.61032 1.14993,1.1984 1.76188,1.76189 0.55502,0.58323 1.10447,1.15416 1.69412,1.69412 0.45268,0.47198 0.91364,0.94578 1.38918,1.38918 0.52539,0.55827 1.06963,1.10726 1.62636,1.62636 0.57448,0.61031 1.14993,1.19839 1.76189,1.76188 0.55502,0.58324 1.10447,1.15416 1.69412,1.69413 0.45268,0.47197 0.91363,0.94578 1.38918,1.38918 0.52539,0.55827 1.06962,1.10725 1.62636,1.62635 0.52538,0.55828 1.06962,1.10726 1.62635,1.62636 0.42526,0.45178 0.84174,0.89529 1.28753,1.32141 0.0109,0.0117 0.0231,0.0222 0.0338,0.0338 0.0927,0.0884 0.17745,0.18377 0.27106,0.27106 0.59785,0.63527 1.22509,1.24511 1.86354,1.82965 0.45268,0.47198 0.91363,0.94578 1.38918,1.38918 0.52539,0.55828 1.06962,1.10726 1.62635,1.62636 0.42526,0.45178 0.84174,0.89529 1.28754,1.32141 0.0108,0.0117 0.0231,0.0222 0.0338,0.0338 0.0927,0.0884 0.17745,0.18377 0.27106,0.27106 0.59785,0.63527 1.22509,1.24511 1.86354,1.82965 0.45268,0.47198 0.91363,0.94578 1.38918,1.38918 0.52539,0.55828 1.06962,1.10726 1.62635,1.62636 0.6074,0.64528 1.21425,1.2706 1.86354,1.86353 -3.3551,2.101 -6.39615,4.16687 -9.14826,6.13272 -20.93669,15.17141 -32.16199,31.25677 -33.67914,48.24859 -1.39876,15.07581 1.82101,26.25744 9.6565,33.61137 0.58727,0.64702 1.2144,1.26824 1.86353,1.86354 0.52541,0.56443 1.08672,1.10216 1.66024,1.62635 0.48255,0.51754 0.96777,1.04104 1.49083,1.52471 0.46697,0.50645 0.95155,0.98263 1.45694,1.45695 0.58728,0.64702 1.2144,1.26823 1.86353,1.86353 0.47393,0.50913 0.97775,1.01444 1.49083,1.49083 0.52668,0.57345 1.08447,1.12783 1.66024,1.66024 0.52071,0.56472 1.05789,1.10157 1.62636,1.62635 0.5422,0.58804 1.10013,1.14939 1.69412,1.69413 0.47393,0.50912 0.97774,1.01443 1.49083,1.49082 0.52667,0.57346 1.08446,1.12784 1.66023,1.66024 0.52071,0.56473 1.0579,1.10158 1.62636,1.62636 0.48846,0.52976 0.99422,1.0301 1.52471,1.52471 0.52669,0.5761 1.08421,1.12539 1.66024,1.66024 0.52668,0.57345 1.08447,1.12783 1.66024,1.66024 0.5207,0.56472 1.05789,1.10157 1.62636,1.62635 0.46696,0.50645 0.95156,0.98263 1.45694,1.45695 0.58728,0.64702 1.2144,1.26823 1.86353,1.86353 0.52542,0.56443 1.08673,1.10216 1.66024,1.62636 0.48255,0.51754 0.96777,1.04104 1.49083,1.52471 0.46696,0.50645 0.95156,0.98262 1.45695,1.45694 0.58727,0.64702 1.2144,1.26824 1.86353,1.86354 0.52541,0.56443 1.08672,1.10216 1.66024,1.62635 0.48255,0.51754 0.96777,1.04105 1.49083,1.52471 0.46696,0.50645 0.95156,0.98263 1.45694,1.45695 0.58728,0.64702 1.2144,1.26823 1.86353,1.86353 0.47394,0.50913 0.97775,1.01444 1.49083,1.49083 0.52668,0.57345 1.08447,1.12783 1.66024,1.66024 0.52071,0.56472 1.05789,1.10157 1.62636,1.62635 0.54219,0.58804 1.10013,1.14939 1.69412,1.69413 0.47393,0.50912 0.97774,1.01443 1.49083,1.49082 0.52668,0.57346 1.08446,1.12784 1.66024,1.66024 0.5207,0.56473 1.05789,1.10158 1.62635,1.62636 0.5422,0.58804 1.10013,1.14939 1.69412,1.69412 0.47393,0.50913 0.97775,1.01444 1.49083,1.49083 0.52668,0.57345 1.08447,1.12783 1.66024,1.66024 0.52071,0.56472 1.05789,1.10157 1.62636,1.62635 0.46696,0.50645 0.95157,0.98263 1.45694,1.45695 0.58728,0.64702 1.2144,1.26823 1.86354,1.86353 0.52541,0.56443 1.08672,1.10216 1.66023,1.62636 0.44704,0.47945 0.90738,0.93881 1.38918,1.38918 0.50188,0.55086 1.01174,1.07923 1.5586,1.59247 0.58727,0.64702 1.2144,1.26824 1.86353,1.86354 0.52541,0.56443 1.08672,1.10216 1.66024,1.62635 0.48255,0.51754 0.96777,1.04105 1.49083,1.52471 0.46696,0.50645 0.95157,0.98263 1.45694,1.45695 0.58728,0.64702 1.2144,1.26823 1.86353,1.86353 0.52542,0.56443 1.08673,1.10216 1.66024,1.62636 0.48255,0.51754 0.96777,1.04104 1.49083,1.52471 0.52071,0.56472 1.05789,1.10157 1.62636,1.62635 0.54219,0.58804 1.10013,1.14939 1.69412,1.69413 0.47393,0.50912 0.97774,1.01443 1.49083,1.49082 0.52668,0.57346 1.08447,1.12784 1.66024,1.66024 0.5207,0.56473 1.05789,1.10158 1.62635,1.62636 0.5422,0.58804 1.10014,1.14939 1.69412,1.69412 0.47394,0.50913 0.97775,1.01444 1.49083,1.49083 0.52668,0.57345 1.08448,1.12783 1.66024,1.66024 0.52071,0.56472 1.05789,1.10157 1.62636,1.62635 0.46696,0.50645 0.95157,0.98263 1.45694,1.45695 0.57661,0.63525 1.19311,1.24425 1.82965,1.82965 2.3406,0.0682 4.69044,0.13553 7.04755,0.13553 117.17231,0 214.51332,-84.91303 233.85655,-196.55199 -0.40184,-0.43563 -0.83142,-0.86359 -1.32141,-1.28754 -0.46977,-0.54436 -1.0143,-1.09824 -1.62636,-1.62635 -0.0203,-0.0235 -0.0473,-0.0444 -0.0678,-0.0678 -0.0247,-0.021 -0.0428,-0.0467 -0.0678,-0.0678 -0.44443,-0.5006 -0.92545,-1.00405 -1.49083,-1.49083 -0.43546,-0.50462 -0.93308,-1.00018 -1.49082,-1.49083 -0.49041,-0.58386 -1.07469,-1.16275 -1.72801,-1.728 -0.46902,-0.5435 -1.01549,-1.09906 -1.62635,-1.62636 -0.01,-0.0117 -0.0236,-0.0221 -0.0338,-0.0338 -0.0375,-0.0322 -0.0635,-0.0695 -0.1016,-0.10159 -0.44442,-0.50059 -0.92545,-1.00405 -1.49082,-1.49083 -0.43546,-0.50461 -0.93309,-1.00017 -1.49083,-1.49082 -0.49041,-0.58387 -1.07469,-1.16275 -1.728,-1.72801 -0.4649,-0.53872 -1.02209,-1.10355 -1.62636,-1.62635 -0.47363,-0.54885 -1.00808,-1.09404 -1.62636,-1.62636 -0.47362,-0.54884 -1.00808,-1.09404 -1.62635,-1.62636 -0.46409,-0.53778 -0.98951,-1.07055 -1.59248,-1.59247 -0.4649,-0.53873 -1.02209,-1.10355 -1.62635,-1.62636 -0.47363,-0.54884 -1.00809,-1.09404 -1.62636,-1.62636 -0.47363,-0.54884 -1.00808,-1.09404 -1.62636,-1.62635 -0.43546,-0.50462 -0.93308,-1.00018 -1.49083,-1.49083 -0.49041,-0.58386 -1.07467,-1.16275 -1.728,-1.728 -0.46977,-0.54437 -1.01429,-1.09825 -1.62636,-1.62636 -0.0203,-0.0235 -0.0473,-0.0444 -0.0678,-0.0678 -0.0247,-0.021 -0.0428,-0.0467 -0.0678,-0.0678 -0.44443,-0.50059 -0.92545,-1.00405 -1.49082,-1.49083 -0.43547,-0.50461 -0.93309,-1.00017 -1.49083,-1.49082 -0.49041,-0.58387 -1.07468,-1.16275 -1.728,-1.72801 -0.46977,-0.54436 -1.0143,-1.09825 -1.62636,-1.62636 -0.0203,-0.0235 -0.0473,-0.0443 -0.0678,-0.0678 -0.0247,-0.021 -0.0428,-0.0467 -0.0678,-0.0678 -0.44443,-0.50059 -0.92545,-1.00404 -1.49083,-1.49082 -0.43546,-0.50462 -0.93308,-1.00018 -1.49083,-1.49083 -0.49041,-0.58386 -1.07467,-1.16275 -1.728,-1.728 -0.46977,-0.54437 -1.01429,-1.09825 -1.62636,-1.62636 -0.0203,-0.0234 -0.0473,-0.0443 -0.0678,-0.0678 -0.0247,-0.021 -0.0428,-0.0467 -0.0678,-0.0678 -0.44442,-0.50059 -0.92545,-1.00405 -1.49082,-1.49083 -0.43547,-0.50461 -0.93309,-1.00017 -1.49083,-1.49082 -0.49041,-0.58387 -1.07467,-1.16275 -1.728,-1.72801 -0.4649,-0.53872 -1.02209,-1.10355 -1.62636,-1.62636 -0.47363,-0.54884 -1.00808,-1.09403 -1.62636,-1.62635 -0.47363,-0.54884 -1.00808,-1.09404 -1.62635,-1.62636 -0.46409,-0.53778 -0.98951,-1.07055 -1.59248,-1.59247 -0.4649,-0.53873 -1.02209,-1.10355 -1.62636,-1.62636 -0.47362,-0.54884 -1.00808,-1.09404 -1.62635,-1.62636 -0.47363,-0.54884 -1.00808,-1.09404 -1.62636,-1.62635 -0.43546,-0.50462 -0.93308,-1.00018 -1.49083,-1.49083 -0.49041,-0.58386 -1.07467,-1.16275 -1.728,-1.728 -0.47363,-0.54885 -1.00808,-1.09404 -1.62636,-1.62636 -0.47362,-0.54884 -1.00808,-1.09404 -1.62635,-1.62636 -0.43547,-0.50461 -0.93309,-1.00018 -1.49083,-1.49083 -0.49041,-0.58386 -1.07468,-1.16274 -1.728,-1.728 -0.46977,-0.54436 -1.0143,-1.09825 -1.62636,-1.62636 -0.0203,-0.0234 -0.0473,-0.0443 -0.0678,-0.0678 -0.0247,-0.021 -0.0428,-0.0467 -0.0678,-0.0678 -0.44443,-0.50059 -0.92544,-1.00404 -1.49083,-1.49082 -0.43546,-0.50462 -0.93308,-1.00018 -1.49083,-1.49083 -0.49041,-0.58386 -1.07467,-1.16275 -1.728,-1.728 -0.46977,-0.54437 -1.01429,-1.09825 -1.62636,-1.62636 -0.0203,-0.0234 -0.0473,-0.0444 -0.0678,-0.0678 -0.0247,-0.021 -0.0428,-0.0467 -0.0678,-0.0678 -0.44443,-0.50059 -0.92544,-1.00405 -1.49082,-1.49083 -0.43547,-0.50461 -0.93309,-1.00017 -1.49083,-1.49082 -0.49041,-0.58387 -1.07468,-1.16275 -1.728,-1.72801 -0.46902,-0.54349 -1.01549,-1.09906 -1.62636,-1.62636 -0.01,-0.0117 -0.0236,-0.0221 -0.0338,-0.0338 -0.0375,-0.0323 -0.0635,-0.0695 -0.10159,-0.1016 -0.44443,-0.50059 -0.92544,-1.00404 -1.49083,-1.49082 -0.47363,-0.54885 -1.00808,-1.09404 -1.62636,-1.62636 -0.46408,-0.53778 -0.9895,-1.07056 -1.59247,-1.59248 -0.4649,-0.53872 -1.02209,-1.10354 -1.62636,-1.62635 -0.47362,-0.54884 -1.00808,-1.09404 -1.62635,-1.62636 -0.47363,-0.54884 -1.00809,-1.09404 -1.62636,-1.62636 -0.43546,-0.50461 -0.93309,-1.00017 -1.49083,-1.49082 -0.49041,-0.58386 -1.07467,-1.16275 -1.728,-1.72801 -0.47363,-0.54884 -1.00808,-1.09404 -1.62636,-1.62635 -0.47363,-0.54884 -1.00808,-1.09404 -1.62636,-1.62636 -0.43546,-0.50462 -0.93308,-1.00018 -1.49082,-1.49083 -0.49041,-0.58386 -1.07468,-1.16274 -1.72801,-1.728 -0.46976,-0.54436 -1.01429,-1.09825 -1.62635,-1.62636 -0.0203,-0.0234 -0.0473,-0.0443 -0.0678,-0.0678 -0.0247,-0.021 -0.0428,-0.0467 -0.0678,-0.0678 -0.44443,-0.50059 -0.92544,-1.00405 -1.49083,-1.49082 -0.43546,-0.50462 -0.93308,-1.00018 -1.49083,-1.49083 -0.49041,-0.58386 -1.07467,-1.16275 -1.728,-1.72801 -0.46977,-0.54436 -1.0143,-1.09824 -1.62636,-1.62635 -0.0203,-0.0234 -0.0473,-0.0443 -0.0678,-0.0678 -0.0247,-0.021 -0.0428,-0.0467 -0.0678,-0.0678 -0.44443,-0.5006 -0.92544,-1.00405 -1.49083,-1.49083 -0.43546,-0.50461 -0.93308,-1.00018 -1.49082,-1.49083 -0.49041,-0.58386 -1.07468,-1.16274 -1.72801,-1.728 -0.46902,-0.5435 -1.01548,-1.09906 -1.62635,-1.62636 -0.01,-0.0117 -0.0236,-0.0221 -0.0338,-0.0338 -0.0375,-0.0323 -0.0635,-0.0695 -0.10159,-0.10159 -0.44443,-0.50059 -0.92544,-1.00405 -1.49083,-1.49083 -0.43546,-0.50461 -0.93309,-1.00017 -1.49083,-1.49082 -0.49041,-0.58387 -1.07467,-1.16275 -1.728,-1.72801 -0.4649,-0.53872 -1.02209,-1.10355 -1.62636,-1.62635 -0.47363,-0.54885 -1.00808,-1.09404 -1.62636,-1.62636 -0.47362,-0.54884 -1.00808,-1.09404 -1.62635,-1.62636 -0.46409,-0.53778 -0.98951,-1.07055 -1.59248,-1.59247 -0.46491,-0.53873 -1.02209,-1.10355 -1.62635,-1.62636 -0.47363,-0.54884 -1.00809,-1.09404 -1.62636,-1.62636 -0.47363,-0.54884 -1.00808,-1.09403 -1.62636,-1.62635 -0.43546,-0.50462 -0.93308,-1.00018 -1.49082,-1.49083 -0.49042,-0.58386 -1.07468,-1.16275 -1.72801,-1.728 -0.46977,-0.54437 -1.01429,-1.09825 -1.62636,-1.62636 -0.0203,-0.0234 -0.0473,-0.0443 -0.0678,-0.0678 -0.0247,-0.021 -0.0428,-0.0467 -0.0678,-0.0678 -0.44442,-0.50059 -0.92544,-1.00405 -1.49082,-1.49083 -0.43548,-0.50461 -0.93309,-1.00017 -1.49083,-1.49082 -0.49041,-0.58387 -1.07467,-1.16275 -1.728,-1.72801 -0.46977,-0.54436 -1.0143,-1.09824 -1.62636,-1.62635 -0.0203,-0.0234 -0.0473,-0.0443 -0.0678,-0.0678 -0.0247,-0.021 -0.0428,-0.0467 -0.0678,-0.0678 -0.44443,-0.5006 -0.92544,-1.00405 -1.49083,-1.49083 -0.43547,-0.50462 -0.93308,-1.00018 -1.49082,-1.49083 -0.49043,-0.58386 -1.07468,-1.16275 -1.72801,-1.728 -0.46977,-0.54437 -1.01429,-1.09825 -1.62636,-1.62636 -0.0203,-0.0234 -0.0473,-0.0443 -0.0678,-0.0678 -0.0247,-0.021 -0.0428,-0.0467 -0.0678,-0.0678 -0.44443,-0.50059 -0.92545,-1.00405 -1.49083,-1.49083 -0.43548,-0.50461 -0.93309,-1.00017 -1.49083,-1.49082 -0.49042,-0.58387 -1.07467,-1.16275 -1.728,-1.72801 -0.46491,-0.53872 -1.02209,-1.10355 -1.62636,-1.62635 -0.47363,-0.54885 -1.00808,-1.09404 -1.62636,-1.62636 -0.47364,-0.54884 -1.00808,-1.09404 -1.62635,-1.62636 -0.4641,-0.53779 -0.98951,-1.07054 -1.59248,-1.59247 -0.46491,-0.53873 -1.02209,-1.10355 -1.62635,-1.62636 -0.47363,-0.54884 -1.00809,-1.09404 -1.62636,-1.62636 -0.47364,-0.54884 -1.00808,-1.09404 -1.62636,-1.62635 -3.55108,-4.11498 -11.15469,-7.75775 -22.83676,-10.94403 -13.35092,-3.94423 -27.31403,-5.92943 -41.87869,-5.92943 z"
     inkscape:connector-curvature="0"
     id="path4627"
     style="font-size:47.60432816px;font-style:normal;font-variant:normal;font-weight:normal;font-stretch:normal;text-align:start;line-height:125%;letter-spacing:0px;word-spacing:0px;writing-mode:lr-tb;text-anchor:start;opacity:0.25;fill:#000000;fill-opacity:1;stroke:none;font-family:Black Rose;-inkscape-font-specification:Black Rose" />
  <text
     x="729.64001"
     y="231.35997"
     id="text20"
     style="font-size:129.22999573px;line-height:125%;letter-spacing:0;word-spacing:0;font-family:Gentium Book Basic">
    <tspan
       x="729.64001"
       y="231.35997"
       id="tspan22" />
  </text>
  <text
     x="378.90805"
     y="579.25812"
     transform="scale(4.0128205,0.24920128)"
     id="text24"
     style="font-size:46.95375824px;text-anchor:middle;font-family:Arial" />
  <text
     x="1310.91"
     y="151.35997"
     id="text26"
     style="font-size:129.22999573px;line-height:125%;letter-spacing:0;word-spacing:0;font-family:Gentium Book Basic">
    <tspan
       x="1310.91"
       y="151.35997"
       id="tspan28" />
  </text>
  <text
     x="523.75732"
     y="258.21997"
     transform="scale(4.0128205,0.24920128)"
     id="text30"
     style="font-size:46.95375824px;text-anchor:middle;font-family:Arial" />
  <text
     x="239.33"
     y="-29.900009"
     id="text32"
     style="font-size:129.22999573px;line-height:125%;letter-spacing:0;word-spacing:0;font-family:Gentium Book Basic">
    <tspan
       x="239.33"
       y="-29.900009"
       id="tspan34" />
  </text>
  <text
     x="256.71869"
     y="-469.1264"
     transform="scale(4.0128205,0.24920128)"
     id="text36"
     style="font-size:46.95375824px;text-anchor:middle;font-family:Arial" />
  <text
     x="1337.38"
     y="-246.37001"
     id="text38"
     style="font-size:129.22999573px;line-height:125%;letter-spacing:0;word-spacing:0;font-family:Gentium Book Basic">
    <tspan
       x="1337.38"
       y="-246.37001"
       id="tspan40" />
  </text>
  <text
     x="530.3573"
     y="-1337.802"
     transform="scale(4.0128205,0.24920128)"
     id="text42"
     style="font-size:46.95375824px;text-anchor:middle;font-family:Arial" />
  <text
     x="1918.65"
     y="-326.37"
     id="text44"
     style="font-size:129.22999573px;line-height:125%;letter-spacing:0;word-spacing:0;font-family:Gentium Book Basic">
    <tspan
       x="1918.65"
       y="-326.37"
       id="tspan46" />
  </text>
  <text
     x="675.20654"
     y="-1658.8303"
     transform="scale(4.0128205,0.24920128)"
     id="text48"
     style="font-size:46.95375824px;text-anchor:middle;font-family:Arial" />
  <text
     x="1529.53"
     y="-798.77002"
     id="text50"
     style="font-size:129.22999573px;line-height:125%;letter-spacing:0;word-spacing:0;font-family:Gentium Book Basic">
    <tspan
       x="1529.53"
       y="-798.77002"
       id="tspan52" />
  </text>
  <text
     x="578.237"
     y="-3554.4807"
     transform="scale(4.0128205,0.24920128)"
     id="text54"
     style="font-size:46.95375824px;text-anchor:middle;font-family:Arial" />
  <text
     x="2110.79"
     y="-878.78003"
     id="text56"
     style="font-size:129.22999573px;line-height:125%;letter-spacing:0;word-spacing:0;font-family:Gentium Book Basic">
    <tspan
       x="2110.79"
       y="-878.78003"
       id="tspan58" />
  </text>
  <text
     x="723.0863"
     y="-3875.519"
     transform="scale(4.0128205,0.24920128)"
     id="text60"
     style="font-size:46.95375824px;text-anchor:middle;font-family:Arial" />
  <text
     x="277.98999"
     y="535.94006"
     id="text62"
     style="font-size:208.33000183px;line-height:125%;letter-spacing:0;word-spacing:0;font-family:Gentium Book Basic">
    <tspan
       x="277.98999"
       y="535.94006"
       id="tspan64" />
  </text>
  <path
     d="m 377.78048,217.85635 q -25.033,26.85304 -85.56732,57.34787 -37.32192,131.53746 -109.69001,131.53746 -48.70055,0 -44.60425,-44.14986 2.27573,-25.48773 33.68075,-48.24483 22.30212,-15.93056 71.00268,-37.77745 5.46175,-16.3847 8.64776,-30.49483 -36.41164,38.68766 -75.55413,38.23255 -26.85357,-0.45893 -37.32191,-21.3918 -7.28233,-15.47544 -5.46174,-37.77745 4.09631,-47.78973 38.2322,-80.10498 34.13591,-32.77035 81.92614,-32.77035 21.84698,0 41.87338,5.91635 20.0264,5.46221 24.12271,12.74387 -6.37205,42.7836 -20.93669,120.61401 51.43142,-24.57753 72.3681,-45.51422 l 7.28233,11.83366 z M 253.52581,171.43097 q 0.45519,-8.19282 -3.18603,-12.74387 -3.18601,-5.00614 -11.83376,-4.55103 -18.20581,0.9083 -34.59104,26.39794 -13.65436,21.84689 -14.56466,38.23254 -0.9103,16.83981 15.0198,16.83981 15.93009,0 32.3153,-24.12242 15.47495,-22.30201 16.84039,-40.05297 z m -24.57784,134.26808 q -40.05278,19.57139 -40.96308,31.40504 -0.45511,6.37241 6.82718,6.37241 13.19922,0 34.1359,-37.77745 z"
     inkscape:connector-curvature="0"
     id="path4083"
     style="font-size:47.60432816px;font-style:normal;font-variant:normal;font-weight:normal;font-stretch:normal;text-align:start;line-height:125%;letter-spacing:0px;word-spacing:0px;writing-mode:lr-tb;text-anchor:start;fill:#ffffff;fill-opacity:1;stroke:none;font-family:Black Rose;-inkscape-font-specification:Black Rose" />
</svg>
