<?xml version="1.0" encoding="UTF-8" standalone="no"?>
<svg
   xmlns:dc="http://purl.org/dc/elements/1.1/"
   xmlns:cc="http://creativecommons.org/ns#"
   xmlns:rdf="http://www.w3.org/1999/02/22-rdf-syntax-ns#"
   xmlns:svg="http://www.w3.org/2000/svg"
   xmlns="http://www.w3.org/2000/svg"
   xmlns:xlink="http://www.w3.org/1999/xlink"
   xmlns:sodipodi="http://sodipodi.sourceforge.net/DTD/sodipodi-0.dtd"
   xmlns:inkscape="http://www.inkscape.org/namespaces/inkscape"
   viewBox="0 0 48 48"
   id="svg2"
   version="1.1"
   inkscape:version="0.48.5 r10040"
   width="100%"
   height="100%"
   sodipodi:docname="hugin.svg">
  <metadata
     id="metadata69">
    <rdf:RDF>
      <cc:Work
         rdf:about="">
        <dc:format>image/svg+xml</dc:format>
        <dc:type
           rdf:resource="http://purl.org/dc/dcmitype/StillImage" />
      </cc:Work>
    </rdf:RDF>
  </metadata>
  <sodipodi:namedview
     pagecolor="#ffffff"
     bordercolor="#666666"
     borderopacity="1"
     objecttolerance="10"
     gridtolerance="10"
     guidetolerance="10"
     inkscape:pageopacity="0"
     inkscape:pageshadow="2"
     inkscape:window-width="1366"
     inkscape:window-height="744"
     id="namedview67"
     showgrid="true"
     inkscape:zoom="11.421113"
     inkscape:cx="17.525456"
     inkscape:cy="22.36563"
     inkscape:window-x="0"
     inkscape:window-y="24"
     inkscape:window-maximized="1"
     inkscape:current-layer="svg2">
    <inkscape:grid
       type="xygrid"
       id="grid3046" />
  </sodipodi:namedview>
  <defs
     id="defs4">
    <linearGradient
       id="linearGradient3791">
      <stop
         style="stop-color:#2483cc;stop-opacity:1;"
         offset="0"
         id="stop3793" />
      <stop
         style="stop-color:#50a7e9;stop-opacity:1;"
         offset="1"
         id="stop3795" />
    </linearGradient>
    <linearGradient
       gradientTransform="matrix(0,-1,1,0,-1.5e-6,47.999998)"
       gradientUnits="userSpaceOnUse"
       x2="47"
       x1="1"
       id="linearGradient3785">
      <stop
         style="stop-color:#137bdd;stop-opacity:1;"
         offset="0"
         id="stop3787"
         stop-opacity="1"
         stop-color="#d6740a" />
      <stop
         style="stop-color:#1985eb;stop-opacity:1;"
         id="stop3789"
         stop-opacity="1"
         stop-color="#e87e0b"
         offset="1" />
    </linearGradient>
    <linearGradient
       id="linearGradient3764"
       x1="1"
       x2="47"
       gradientUnits="userSpaceOnUse"
       gradientTransform="matrix(0,-1,1,0,-1.5e-6,47.999998)">
      <stop
         stop-color="#d6740a"
         stop-opacity="1"
         id="stop7"
         offset="0"
         style="stop-color:#137bdd;stop-opacity:1;" />
      <stop
         offset="1"
         stop-color="#e87e0b"
         stop-opacity="1"
         id="stop9"
         style="stop-color:#1985eb;stop-opacity:1;" />
    </linearGradient>
    <clipPath
       id="clipPath-059275953">
      <g
         transform="translate(0,-1004.3622)"
         id="g12">
        <path
           d="m -24 13 c 0 1.105 -0.672 2 -1.5 2 -0.828 0 -1.5 -0.895 -1.5 -2 0 -1.105 0.672 -2 1.5 -2 0.828 0 1.5 0.895 1.5 2 z"
           transform="matrix(15.333333,0,0,11.5,414.99999,878.8622)"
           fill="#1890d0"
           id="path14" />
      </g>
    </clipPath>
    <clipPath
       id="clipPath-069049578">
      <g
         transform="translate(0,-1004.3622)"
         id="g17">
        <path
           d="m -24 13 c 0 1.105 -0.672 2 -1.5 2 -0.828 0 -1.5 -0.895 -1.5 -2 0 -1.105 0.672 -2 1.5 -2 0.828 0 1.5 0.895 1.5 2 z"
           transform="matrix(15.333333,0,0,11.5,414.99999,878.8622)"
           fill="#1890d0"
           id="path19" />
      </g>
    </clipPath>
    <linearGradient
       inkscape:collect="always"
       xlink:href="#linearGradient3764"
       id="linearGradient3015"
       gradientUnits="userSpaceOnUse"
       gradientTransform="matrix(0,-1,1,0,-56.000002,47.999998)"
       x1="1"
       x2="47" />
    <linearGradient
       inkscape:collect="always"
       xlink:href="#linearGradient3791"
       id="linearGradient3797"
       x1="25"
       y1="47"
       x2="25"
       y2="1"
       gradientUnits="userSpaceOnUse" />
  </defs>
  <path
     inkscape:connector-curvature="0"
     style="fill:url(#linearGradient3797);fill-opacity:1"
     id="path31"
     d="M 24,1 C 36.703,1 47,11.297 47,24 47,36.703 36.703,47 24,47 11.297,47 1,36.703 1,24 1,11.297 11.297,1 24,1 z" />
  <g
     id="g33" />
  <g
     id="g3854"
     transform="matrix(1.2692308,0,0,1.2692308,-6.5384623,-4.0384621)"
     style="opacity:0.1;fill:#000000">
    <path
       style="fill:#000000;stroke:none"
       d="m 12,16 26,2 -10,0 -4,0 z"
       id="path3856"
       inkscape:connector-curvature="0"
       sodipodi:nodetypes="ccccc" />
    <path
       style="fill:#000000;stroke:none"
       d="m 24,21 -2,5 -3,6 3,2 -1,-2 3,-6 -1,7 3,2 -1,-2 0,-4 2,-8 1,-2 -4,0 z"
       id="path3858"
       inkscape:connector-curvature="0"
       sodipodi:nodetypes="cccccccccccccc" />
    <path
       sodipodi:type="arc"
       style="fill:#000000;fill-opacity:1;stroke:none"
       id="path3860"
       sodipodi:cx="24.5"
       sodipodi:cy="12.5"
       sodipodi:rx="1.5"
       sodipodi:ry="1.5"
       d="M 26,12.5 C 26,13.328427 25.328427,14 24.5,14 23.671573,14 23,13.328427 23,12.5 23,11.671573 23.671573,11 24.5,11 c 0.828427,0 1.5,0.671573 1.5,1.5 z"
       transform="matrix(1.3333333,0,0,1.3333333,-6.6666659,-1.6666662)" />
    <path
       transform="translate(2,2.5)"
       d="M 26,12.5 C 26,13.328427 25.328427,14 24.5,14 23.671573,14 23,13.328427 23,12.5 23,11.671573 23.671573,11 24.5,11 c 0.828427,0 1.5,0.671573 1.5,1.5 z"
       sodipodi:ry="1.5"
       sodipodi:rx="1.5"
       sodipodi:cy="12.5"
       sodipodi:cx="24.5"
       id="path3862"
       style="fill:#000000;fill-opacity:1;stroke:none"
       sodipodi:type="arc" />
  </g>
  <g
     id="g3848"
     transform="matrix(1.3076923,0,0,1.3076923,-8.3846152,-5.4615383)">
    <path
       sodipodi:nodetypes="ccccc"
       inkscape:connector-curvature="0"
       id="path3052"
       d="m 12,16 26,2 -10,0 -4,0 z"
       style="fill:#333333;stroke:none" />
    <path
       sodipodi:nodetypes="cccccccccccccc"
       inkscape:connector-curvature="0"
       id="path3054"
       d="m 24,21 -2,5 -3,6 3,2 -1,-2 3,-6 -1,7 3,2 -1,-2 0,-4 2,-8 1,-2 -4,0 z"
       style="fill:#333333;stroke:none" />
    <path
       transform="matrix(1.3333333,0,0,1.3333333,-6.6666659,-1.6666662)"
       d="M 26,12.5 C 26,13.328427 25.328427,14 24.5,14 23.671573,14 23,13.328427 23,12.5 23,11.671573 23.671573,11 24.5,11 c 0.828427,0 1.5,0.671573 1.5,1.5 z"
       sodipodi:ry="1.5"
       sodipodi:rx="1.5"
       sodipodi:cy="12.5"
       sodipodi:cx="24.5"
       id="path3056"
       style="fill:#333333;fill-opacity:1;stroke:none"
       sodipodi:type="arc" />
    <path
       sodipodi:type="arc"
       style="fill:#d6d610;fill-opacity:1;stroke:none"
       id="path3058"
       sodipodi:cx="24.5"
       sodipodi:cy="12.5"
       sodipodi:rx="1.5"
       sodipodi:ry="1.5"
       d="M 26,12.5 C 26,13.328427 25.328427,14 24.5,14 23.671573,14 23,13.328427 23,12.5 23,11.671573 23.671573,11 24.5,11 c 0.828427,0 1.5,0.671573 1.5,1.5 z"
       transform="translate(2,2.5)" />
  </g>
</svg>
