<?xml version="1.0" encoding="UTF-8" standalone="no"?>
<!-- Created with Inkscape (http://www.inkscape.org/) -->

<svg
   xmlns:dc="http://purl.org/dc/elements/1.1/"
   xmlns:cc="http://creativecommons.org/ns#"
   xmlns:rdf="http://www.w3.org/1999/02/22-rdf-syntax-ns#"
   xmlns:svg="http://www.w3.org/2000/svg"
   xmlns="http://www.w3.org/2000/svg"
   xmlns:xlink="http://www.w3.org/1999/xlink"
   xmlns:sodipodi="http://sodipodi.sourceforge.net/DTD/sodipodi-0.dtd"
   xmlns:inkscape="http://www.inkscape.org/namespaces/inkscape"
   version="1.1"
   width="100%"
   height="100%"
   viewBox="0 0 512 512"
   id="svg2"
   inkscape:version="0.48.5 r10040"
   sodipodi:docname="monodevelop.svg">
  <sodipodi:namedview
     pagecolor="#ffffff"
     bordercolor="#666666"
     borderopacity="1"
     objecttolerance="10"
     gridtolerance="10"
     guidetolerance="10"
     inkscape:pageopacity="0"
     inkscape:pageshadow="2"
     inkscape:window-width="640"
     inkscape:window-height="480"
     id="namedview90"
     showgrid="false"
     inkscape:zoom="0.4609375"
     inkscape:cx="256"
     inkscape:cy="256"
     inkscape:window-x="15"
     inkscape:window-y="39"
     inkscape:window-maximized="0"
     inkscape:current-layer="svg2" />
  <metadata
     id="metadata70">
    <rdf:RDF>
      <cc:Work
         rdf:about="">
        <dc:format>image/svg+xml</dc:format>
        <dc:type
           rdf:resource="http://purl.org/dc/dcmitype/StillImage" />
        <dc:title />
      </cc:Work>
    </rdf:RDF>
  </metadata>
  <defs
     id="defs68">
    <filter
       color-interpolation-filters="sRGB"
       id="filter3174">
      <feGaussianBlur
         id="feGaussianBlur3176"
         stdDeviation="1.71" />
    </filter>
    <linearGradient
       x1="45.447727"
       y1="92.539597"
       x2="45.447727"
       y2="7.0165396"
       id="ButtonShadow"
       gradientUnits="userSpaceOnUse"
       gradientTransform="scale(1.0058652,0.994169)">
      <stop
         id="stop3750"
         style="stop-color:#000000;stop-opacity:1"
         offset="0" />
      <stop
         id="stop3752"
         style="stop-color:#000000;stop-opacity:0.58823532"
         offset="1" />
    </linearGradient>
    <linearGradient
       x1="45.447727"
       y1="92.539597"
       x2="45.447727"
       y2="7.0165396"
       id="linearGradient3158"
       xlink:href="#ButtonShadow"
       gradientUnits="userSpaceOnUse"
       gradientTransform="scale(1.0058652,0.994169)" />
    <clipPath
       id="clipPath3729">
      <path
         d="m 471.9456,253.05189 c 0,120.89699 -98.00565,218.90724 -218.90724,218.90724 -120.89698,0 -218.90723,-98.00566 -218.90723,-218.90724 0,-120.89698 98.00565,-218.907232 218.90723,-218.907232 120.89699,0 218.90724,98.005652 218.90724,218.907232"
         inkscape:connector-curvature="0"
         id="path3731"
         style="fill:#336699;fill-rule:evenodd" />
    </clipPath>
  </defs>
  <path
     d="m 493.64052,256.30613 c 0,131.08132 -106.26162,237.34792 -237.34792,237.34792 -131.08131,0 -237.347911,-106.26163 -237.347911,-237.34792 0,-131.0813 106.261621,-237.347913 237.347911,-237.347913 131.08131,0 237.34792,106.261623 237.34792,237.347913"
     inkscape:connector-curvature="0"
     id="path8"
     style="fill:#9bd21f;fill-rule:evenodd;fill-opacity:1" />
  <text
     x="729.64001"
     y="231.35997"
     id="text20"
     style="font-size:129.22999573px;line-height:125%;letter-spacing:0;word-spacing:0;font-family:Gentium Book Basic">
    <tspan
       x="729.64001"
       y="231.35997"
       id="tspan22" />
  </text>
  <text
     x="378.90805"
     y="579.25812"
     transform="scale(4.0128205,0.24920128)"
     id="text24"
     style="font-size:46.95375824px;text-anchor:middle;font-family:Arial" />
  <text
     x="1310.91"
     y="151.35997"
     id="text26"
     style="font-size:129.22999573px;line-height:125%;letter-spacing:0;word-spacing:0;font-family:Gentium Book Basic">
    <tspan
       x="1310.91"
       y="151.35997"
       id="tspan28" />
  </text>
  <text
     x="523.75732"
     y="258.21997"
     transform="scale(4.0128205,0.24920128)"
     id="text30"
     style="font-size:46.95375824px;text-anchor:middle;font-family:Arial" />
  <text
     x="239.33"
     y="-29.900009"
     id="text32"
     style="font-size:129.22999573px;line-height:125%;letter-spacing:0;word-spacing:0;font-family:Gentium Book Basic">
    <tspan
       x="239.33"
       y="-29.900009"
       id="tspan34" />
  </text>
  <text
     x="256.71869"
     y="-469.1264"
     transform="scale(4.0128205,0.24920128)"
     id="text36"
     style="font-size:46.95375824px;text-anchor:middle;font-family:Arial" />
  <text
     x="1337.38"
     y="-246.37001"
     id="text38"
     style="font-size:129.22999573px;line-height:125%;letter-spacing:0;word-spacing:0;font-family:Gentium Book Basic">
    <tspan
       x="1337.38"
       y="-246.37001"
       id="tspan40" />
  </text>
  <text
     x="530.3573"
     y="-1337.802"
     transform="scale(4.0128205,0.24920128)"
     id="text42"
     style="font-size:46.95375824px;text-anchor:middle;font-family:Arial" />
  <text
     x="1918.65"
     y="-326.37"
     id="text44"
     style="font-size:129.22999573px;line-height:125%;letter-spacing:0;word-spacing:0;font-family:Gentium Book Basic">
    <tspan
       x="1918.65"
       y="-326.37"
       id="tspan46" />
  </text>
  <text
     x="675.20654"
     y="-1658.8303"
     transform="scale(4.0128205,0.24920128)"
     id="text48"
     style="font-size:46.95375824px;text-anchor:middle;font-family:Arial" />
  <text
     x="1529.53"
     y="-798.77002"
     id="text50"
     style="font-size:129.22999573px;line-height:125%;letter-spacing:0;word-spacing:0;font-family:Gentium Book Basic">
    <tspan
       x="1529.53"
       y="-798.77002"
       id="tspan52" />
  </text>
  <text
     x="578.237"
     y="-3554.4807"
     transform="scale(4.0128205,0.24920128)"
     id="text54"
     style="font-size:46.95375824px;text-anchor:middle;font-family:Arial" />
  <text
     x="2110.79"
     y="-878.78003"
     id="text56"
     style="font-size:129.22999573px;line-height:125%;letter-spacing:0;word-spacing:0;font-family:Gentium Book Basic">
    <tspan
       x="2110.79"
       y="-878.78003"
       id="tspan58" />
  </text>
  <text
     x="723.0863"
     y="-3875.519"
     transform="scale(4.0128205,0.24920128)"
     id="text60"
     style="font-size:46.95375824px;text-anchor:middle;font-family:Arial" />
  <text
     x="277.98999"
     y="535.94006"
     id="text62"
     style="font-size:208.33000183px;line-height:125%;letter-spacing:0;word-spacing:0;font-family:Gentium Book Basic">
    <tspan
       x="277.98999"
       y="535.94006"
       id="tspan64" />
  </text>
  <rect
     width="86"
     height="85"
     rx="6"
     ry="6"
     x="5"
     y="7"
     transform="matrix(2.1031074,0,0,2.1031074,-1451.36,143.20322)"
     id="rect3745"
     style="opacity:0.9;fill:url(#linearGradient3158);fill-opacity:1;fill-rule:nonzero;stroke:none;display:none;filter:url(#filter3174)" />
  <path
     d="m 267.00586,100.58351 c -4.56632,0 -8.57408,0.28104 -12.10694,0.65243 -12.21764,1.27577 -24.84257,4.16157 -28.75402,6.70107 -1.10249,0.72271 6.75624,2.69508 20.32238,5.1904 12.17883,2.23837 21.00536,4.27901 19.67381,4.53898 -1.33158,0.26098 -20.31583,-1.70939 -42.37435,-4.53898 -38.7255,-4.96959 -40.32568,-5.25263 -43.02291,-2.81151 -5.62371,5.09003 -13.68411,19.14862 -15.34989,26.59245 -1.61277,7.20695 -1.4262,8.01597 2.16196,15.3494 6.11596,12.50075 17.36055,21.5024 43.23911,34.59236 12.23709,6.18815 21.98229,11.52812 21.61955,11.88947 -0.36255,0.36135 -10.73187,-3.51916 -23.13292,-8.64734 l -22.48434,-9.29576 -33.0779,9.29576 c -18.19725,5.09304 -34.61947,9.29576 -35.36614,9.29576 l -0.52577,210.3557 29.40606,0 c 0,-2.17113 72.62442,-90.48139 74.15508,-90.15014 0.87446,0.18066 33.23496,14.05155 71.99314,30.7008 66.19415,28.43234 70.6356,30.07146 72.42551,27.67249 2.70682,-3.62756 12.14791,-23.1054 17.07944,-35.45559 l 4.10771,-10.37881 -7.13445,-3.89155 c -9.98899,-5.46144 -24.55227,-17.65604 -33.72653,-28.10512 -8.37178,-9.53566 -23.56531,-32.66817 -23.56531,-35.88821 0,-1.066 4.9454,3.82028 10.80979,10.81043 16.4724,19.63241 54.47555,50.42056 56.85942,46.0482 2.82881,-5.18739 4.63075,-20.51874 4.54013,-38.2671 -0.11072,-21.66503 -3.13597,-38.54917 -10.5936,-61.83124 l -4.10769,-12.97051 -20.53857,-6.48726 -25.2949,-7.99892 c -8.92643,-2.80548 -3.55576,-2.70109 9.5126,0.22083 15.62544,3.49006 31.68154,6.54648 41.50956,7.7831 8.65341,1.09009 10.53304,-0.74278 11.45836,-10.37781 1.17983,-12.27691 -6.70727,-46.24394 -14.70131,-63.12807 -3.19057,-6.73821 -4.6382,-8.1013 -11.02596,-11.02624 -18.60558,-8.51986 -72.02595,-16.53082 -103.99011,-16.43246 z"
     inkscape:connector-curvature="0"
     id="path3062"
     style="fill:#ffffff;fill-opacity:1;stroke:none" />
</svg>
