<?xml version="1.0" encoding="UTF-8" standalone="no"?>
<!-- Created with Inkscape (http://www.inkscape.org/) -->

<svg
   xmlns:dc="http://purl.org/dc/elements/1.1/"
   xmlns:cc="http://creativecommons.org/ns#"
   xmlns:rdf="http://www.w3.org/1999/02/22-rdf-syntax-ns#"
   xmlns:svg="http://www.w3.org/2000/svg"
   xmlns="http://www.w3.org/2000/svg"
   xmlns:sodipodi="http://sodipodi.sourceforge.net/DTD/sodipodi-0.dtd"
   xmlns:inkscape="http://www.inkscape.org/namespaces/inkscape"
   version="1.1"
   width="100%"
   height="100%"
   viewBox="0 0 512 512"
   id="svg2"
   inkscape:version="0.48.5 r10040"
   sodipodi:docname="nero.svg">
  <sodipodi:namedview
     pagecolor="#ffffff"
     bordercolor="#666666"
     borderopacity="1"
     objecttolerance="10"
     gridtolerance="10"
     guidetolerance="10"
     inkscape:pageopacity="0"
     inkscape:pageshadow="2"
     inkscape:window-width="640"
     inkscape:window-height="480"
     id="namedview140"
     showgrid="false"
     inkscape:zoom="0.4609375"
     inkscape:cx="256"
     inkscape:cy="256"
     inkscape:window-x="15"
     inkscape:window-y="39"
     inkscape:window-maximized="0"
     inkscape:current-layer="svg2" />
  <metadata
     id="metadata70">
    <rdf:RDF>
      <cc:Work
         rdf:about="">
        <dc:format>image/svg+xml</dc:format>
        <dc:type
           rdf:resource="http://purl.org/dc/dcmitype/StillImage" />
        <dc:title />
      </cc:Work>
    </rdf:RDF>
  </metadata>
  <defs
     id="defs68">
    <style
       type="text/css"
       id="style2464-7" />
    <style
       type="text/css"
       id="style2464" />
    <clipPath
       id="clipPath3645">
      <path
         d="m 471.9456,253.05189 c 0,120.89699 -98.00565,218.90724 -218.90724,218.90724 -120.89698,0 -218.90723,-98.00566 -218.90723,-218.90724 0,-120.89698 98.00565,-218.907232 218.90723,-218.907232 120.89699,0 218.90724,98.005652 218.90724,218.907232"
         inkscape:connector-curvature="0"
         id="path3647"
         style="fill:#f55124;fill-opacity:1;fill-rule:evenodd" />
    </clipPath>
  </defs>
  <path
     d="m 489.30153,257.39088 c 0,130.48223 -105.77597,236.26317 -236.26317,236.26317 -130.48222,0 -236.263162,-105.77598 -236.263162,-236.26317 0,-130.48223 105.775972,-236.263171 236.263162,-236.263171 130.48224,0 236.26317,105.775981 236.26317,236.263171"
     inkscape:connector-curvature="0"
     id="path8"
     style="fill:#f55124;fill-opacity:1;fill-rule:evenodd" />
  <text
     x="729.64001"
     y="231.35997"
     id="text20"
     style="font-size:129.22999573px;line-height:125%;letter-spacing:0;word-spacing:0;font-family:Gentium Book Basic">
    <tspan
       x="729.64001"
       y="231.35997"
       id="tspan22" />
  </text>
  <text
     x="378.90805"
     y="579.25812"
     transform="scale(4.0128205,0.24920128)"
     id="text24"
     style="font-size:46.95375824px;text-anchor:middle;font-family:Arial" />
  <text
     x="1310.91"
     y="151.35997"
     id="text26"
     style="font-size:129.22999573px;line-height:125%;letter-spacing:0;word-spacing:0;font-family:Gentium Book Basic">
    <tspan
       x="1310.91"
       y="151.35997"
       id="tspan28" />
  </text>
  <text
     x="523.75732"
     y="258.21997"
     transform="scale(4.0128205,0.24920128)"
     id="text30"
     style="font-size:46.95375824px;text-anchor:middle;font-family:Arial" />
  <text
     x="239.33"
     y="-29.900009"
     id="text32"
     style="font-size:129.22999573px;line-height:125%;letter-spacing:0;word-spacing:0;font-family:Gentium Book Basic">
    <tspan
       x="239.33"
       y="-29.900009"
       id="tspan34" />
  </text>
  <text
     x="256.71869"
     y="-469.1264"
     transform="scale(4.0128205,0.24920128)"
     id="text36"
     style="font-size:46.95375824px;text-anchor:middle;font-family:Arial" />
  <text
     x="1337.38"
     y="-246.37001"
     id="text38"
     style="font-size:129.22999573px;line-height:125%;letter-spacing:0;word-spacing:0;font-family:Gentium Book Basic">
    <tspan
       x="1337.38"
       y="-246.37001"
       id="tspan40" />
  </text>
  <text
     x="530.3573"
     y="-1337.802"
     transform="scale(4.0128205,0.24920128)"
     id="text42"
     style="font-size:46.95375824px;text-anchor:middle;font-family:Arial" />
  <text
     x="1918.65"
     y="-326.37"
     id="text44"
     style="font-size:129.22999573px;line-height:125%;letter-spacing:0;word-spacing:0;font-family:Gentium Book Basic">
    <tspan
       x="1918.65"
       y="-326.37"
       id="tspan46" />
  </text>
  <text
     x="675.20654"
     y="-1658.8303"
     transform="scale(4.0128205,0.24920128)"
     id="text48"
     style="font-size:46.95375824px;text-anchor:middle;font-family:Arial" />
  <text
     x="1529.53"
     y="-798.77002"
     id="text50"
     style="font-size:129.22999573px;line-height:125%;letter-spacing:0;word-spacing:0;font-family:Gentium Book Basic">
    <tspan
       x="1529.53"
       y="-798.77002"
       id="tspan52" />
  </text>
  <text
     x="578.237"
     y="-3554.4807"
     transform="scale(4.0128205,0.24920128)"
     id="text54"
     style="font-size:46.95375824px;text-anchor:middle;font-family:Arial" />
  <text
     x="2110.79"
     y="-878.78003"
     id="text56"
     style="font-size:129.22999573px;line-height:125%;letter-spacing:0;word-spacing:0;font-family:Gentium Book Basic">
    <tspan
       x="2110.79"
       y="-878.78003"
       id="tspan58" />
  </text>
  <text
     x="723.0863"
     y="-3875.519"
     transform="scale(4.0128205,0.24920128)"
     id="text60"
     style="font-size:46.95375824px;text-anchor:middle;font-family:Arial" />
  <text
     x="277.98999"
     y="535.94006"
     id="text62"
     style="font-size:208.33000183px;line-height:125%;letter-spacing:0;word-spacing:0;font-family:Gentium Book Basic">
    <tspan
       x="277.98999"
       y="535.94006"
       id="tspan64" />
  </text>
  <g
     clip-path="url(#clipPath3645)"
     id="g3190"
     style="opacity:0.25;fill:#000000;fill-opacity:1"
     transform="matrix(1.0792844,0,0,1.0792844,-20.061999,-15.724089)">
    <path
       d="m 218.0097,300.54496 c -12.27224,-0.83183 -22.22215,-4.30271 -30.30974,-10.57233 l 388.90873,388.90873 c 8.08759,6.26962 18.0375,9.7405 30.30974,10.57233 z"
       inkscape:connector-curvature="0"
       id="path3192"
       style="fill:#000000" />
    <path
       d="m 187.69996,289.97263 c -1.0996,-0.85241 -2.23574,-1.86904 -3.3488,-2.98211 l 388.90872,388.90873 c 1.11307,1.11307 2.24921,2.1297 3.34881,2.98211 z"
       inkscape:connector-curvature="0"
       id="path3194"
       style="fill:#000000" />
    <path
       d="m 184.35116,286.99052 c -2.49716,-2.49716 -4.8782,-5.47971 -6.4699,-8.18219 l 388.90873,388.90873 c 1.5917,2.70248 3.97273,5.68503 6.46989,8.18219 z"
       inkscape:connector-curvature="0"
       id="path3196"
       style="fill:#000000" />
    <path
       d="m 177.88126,278.80833 c -0.53879,-0.91424 -1.26621,-1.79023 -1.36675,-1.94663 l 388.90873,388.90873 c 0.10054,0.1564 0.82796,1.03239 1.36675,1.94663 z"
       inkscape:connector-curvature="0"
       id="path3198"
       style="fill:#000000" />
    <path
       d="m 176.51451,276.8617 0,21.80211 388.90873,388.90873 0,-21.80211 z"
       inkscape:connector-curvature="0"
       id="path3200"
       style="fill:#000000" />
    <path
       d="m 176.51451,298.66381 -34.47126,0 388.90873,388.90873 34.47126,0 z"
       inkscape:connector-curvature="0"
       id="path3202"
       style="fill:#000000" />
    <path
       d="m 142.04325,298.66381 -0.0859,-25.16721 388.90873,388.90873 0.0859,25.16721 z"
       inkscape:connector-curvature="0"
       id="path3204"
       style="fill:#000000" />
    <path
       d="m 141.95735,273.4966 c -0.0885,-26.07896 -0.12546,-27.34087 -0.90271,-30.4755 l 388.90873,388.90873 c 0.77725,3.13463 0.81421,4.39654 0.90271,30.4755 z"
       inkscape:connector-curvature="0"
       id="path3206"
       style="fill:#000000" />
    <path
       d="m 141.05464,243.0211 c -0.46939,-1.93205 -1.36138,-3.46448 -2.54374,-4.64685 l 388.90873,388.90873 c 1.18236,1.18237 2.07435,2.7148 2.54374,4.64685 z"
       inkscape:connector-curvature="0"
       id="path3208"
       style="fill:#000000" />
    <path
       d="m 138.5109,238.37425 c -2.31629,-2.31628 -5.74698,-3.28909 -9.29798,-3.29097 l 388.90873,388.90873 c 3.551,0.002 6.98169,0.97469 9.29798,3.29097 z"
       inkscape:connector-curvature="0"
       id="path3210"
       style="fill:#000000" />
    <path
       d="m 129.21292,235.08328 c -6.24469,-0.16413 -10.93332,2.37508 -13.6853,8.16837 l 388.90873,388.90873 c 2.75198,-5.79329 7.44061,-8.3325 13.6853,-8.16837 z"
       inkscape:connector-curvature="0"
       id="path3212"
       style="fill:#000000" />
    <path
       d="m 115.52762,243.25165 c -1.14229,3.14692 -1.07475,1.39906 -1.14393,29.58147 l 388.90873,388.90873 c 0.0692,-28.18241 0.002,-26.43455 1.14393,-29.58147 z"
       inkscape:connector-curvature="0"
       id="path3214"
       style="fill:#000000" />
    <path
       d="m 114.38369,272.83312 -0.0602,25.83069 388.90873,388.90873 0.0602,-25.83069 z"
       inkscape:connector-curvature="0"
       id="path3216"
       style="fill:#000000" />
    <path
       d="m 114.32349,298.66381 -34.63754,0 388.90873,388.90873 34.63754,0 z"
       inkscape:connector-curvature="0"
       id="path3218"
       style="fill:#000000" />
    <path
       d="m 79.68595,298.66381 c -0.50528,-23.71513 0.52676,-47.48251 -0.42021,-71.18862 l 388.90873,388.90873 c 0.94697,23.70611 -0.0851,47.47349 0.42021,71.18862 z"
       inkscape:connector-curvature="0"
       id="path3220"
       style="fill:#000000" />
    <path
       d="m 79.26574,227.47519 c -0.39701,-3.84228 -1.16807,-7.00072 -2.81565,-11.53278 l 388.90873,388.90873 c 1.64758,4.53206 2.41864,7.6905 2.81565,11.53278 z"
       inkscape:connector-curvature="0"
       id="path3222"
       style="fill:#000000" />
    <path
       d="m 76.45009,215.94241 -0.90762,-2.49642 388.90873,388.90873 0.90762,2.49642 z"
       inkscape:connector-curvature="0"
       id="path3224"
       style="fill:#000000" />
    <path
       d="m 75.54247,213.44599 33.68507,0.13749 388.90873,388.90873 -33.68507,-0.13749 z"
       inkscape:connector-curvature="0"
       id="path3226"
       style="fill:#000000" />
    <path
       d="m 109.22754,213.58348 0.8576,1.7623 388.90873,388.90873 -0.8576,-1.7623 z"
       inkscape:connector-curvature="0"
       id="path3228"
       style="fill:#000000" />
    <path
       d="m 110.08514,215.34578 c 0.50271,1.03265 0.98865,2.39734 1.17453,3.29619 L 500.1684,607.5507 c -0.18588,-0.89885 -0.67182,-2.26354 -1.17453,-3.29619 z"
       inkscape:connector-curvature="0"
       id="path3230"
       style="fill:#000000" />
    <path
       d="m 111.25967,218.64197 c 0.16281,0.78758 0.35032,1.44118 0.43398,1.52484 l 388.90873,388.90873 c -0.0837,-0.0837 -0.27117,-0.73726 -0.43398,-1.52484 z"
       inkscape:connector-curvature="0"
       id="path3232"
       style="fill:#000000" />
    <path
       d="m 111.69365,220.16681 c 0.006,0.006 0.0114,0.009 0.0163,0.009 l 388.90873,388.90873 c -0.005,0 -0.0103,-0.003 -0.0163,-0.009 z"
       inkscape:connector-curvature="0"
       id="path3234"
       style="fill:#000000" />
    <path
       d="m 111.70995,220.17586 c 0.0773,0 1.22668,-0.73301 2.56353,-1.62962 l 388.90873,388.90873 c -1.33685,0.89661 -2.48623,1.62962 -2.56353,1.62962 z"
       inkscape:connector-curvature="0"
       id="path3236"
       style="fill:#000000" />
    <path
       d="m 114.27348,218.54624 c 5.21522,-3.49675 10.46594,-5.46778 17.21806,-6.46339 l 388.90873,388.90873 c -6.75212,0.99561 -12.00284,2.96664 -17.21806,6.46339 z"
       inkscape:connector-curvature="0"
       id="path3238"
       style="fill:#000000" />
    <path
       d="m 131.49154,212.08285 c 3.57228,-0.52677 12.51181,-0.47091 16.18206,0.10054 l 388.90873,388.90873 c -3.67025,-0.57145 -12.60978,-0.62731 -16.18206,-0.10054 z"
       inkscape:connector-curvature="0"
       id="path3240"
       style="fill:#000000" />
    <path
       d="m 147.6736,212.18339 c 8.38964,1.3066 15.05222,4.16694 20.21064,8.67674 l 388.90873,388.90873 c -5.15842,-4.5098 -11.821,-7.37014 -20.21064,-8.67674 z"
       inkscape:connector-curvature="0"
       id="path3242"
       style="fill:#000000" />
    <path
       d="m 167.88424,220.86013 c 0.31941,0.27926 0.63126,0.57114 0.93524,0.87513 l 388.90873,388.90873 c -0.30398,-0.30399 -0.61583,-0.59587 -0.93524,-0.87513 z"
       inkscape:connector-curvature="0"
       id="path3244"
       style="fill:#000000" />
    <path
       d="m 168.81948,221.73526 c 3.31077,3.31077 5.68991,8.05714 6.77494,13.56071 L 564.50315,624.2047 c -1.08503,-5.50357 -3.46417,-10.24994 -6.77494,-13.56071 z"
       inkscape:connector-curvature="0"
       id="path3246"
       style="fill:#000000" />
    <path
       d="m 175.59442,235.29597 0.42021,2.13326 388.90873,388.90873 -0.42021,-2.13326 z"
       inkscape:connector-curvature="0"
       id="path3248"
       style="fill:#000000" />
    <path
       d="m 176.01463,237.42923 0.8882,-1.68152 388.90873,388.90873 -0.8882,1.68152 z"
       inkscape:connector-curvature="0"
       id="path3250"
       style="fill:#000000" />
    <path
       d="m 176.90283,235.74771 c 1.7268,-3.26937 3.76219,-6.04919 6.52852,-8.91641 l 388.90873,388.90873 c -2.76633,2.86722 -4.80172,5.64704 -6.52852,8.91641 z"
       inkscape:connector-curvature="0"
       id="path3252"
       style="fill:#000000" />
    <path
       d="m 183.43135,226.8313 c 8.30913,-8.61246 19.67357,-13.63692 34.41515,-15.21558 l 388.90873,388.90873 c -14.74158,1.57866 -26.10602,6.60312 -34.41515,15.21558 z"
       inkscape:connector-curvature="0"
       id="path3254"
       style="fill:#000000" />
    <path
       d="m 217.8465,211.61572 c 3.50767,-0.37552 12.44186,-0.32396 16.01982,0.0928 l 388.90873,388.90873 c -3.57796,-0.41676 -12.51215,-0.46832 -16.01982,-0.0928 z"
       inkscape:connector-curvature="0"
       id="path3256"
       style="fill:#000000" />
    <path
       d="m 233.86632,211.70852 c 7.48925,0.87255 13.59335,2.63202 19.18264,5.5293 l 388.90873,388.90873 c -5.58929,-2.89728 -11.69339,-4.65675 -19.18264,-5.5293 z"
       inkscape:connector-curvature="0"
       id="path3258"
       style="fill:#000000" />
    <path
       d="m 253.04896,217.23782 c 4.20798,2.18122 7.40413,4.50541 10.67945,7.78073 l 388.90873,388.90873 c -3.27532,-3.27532 -6.47147,-5.59951 -10.67945,-7.78073 z"
       inkscape:connector-curvature="0"
       id="path3260"
       style="fill:#000000" />
    <path
       d="m 263.72841,225.01855 c 0.16156,0.16156 0.32331,0.32543 0.48538,0.49171 l 388.90873,388.90873 c -0.16207,-0.16628 -0.32382,-0.33015 -0.48538,-0.49171 z"
       inkscape:connector-curvature="0"
       id="path3262"
       style="fill:#000000" />
    <path
       d="m 264.21379,225.51026 c 3.22709,3.31105 6.10359,7.43846 7.95646,11.41652 l 388.90873,388.90873 c -1.85287,-3.97806 -4.72937,-8.10547 -7.95646,-11.41652 z"
       inkscape:connector-curvature="0"
       id="path3264"
       style="fill:#000000" />
    <path
       d="m 272.17025,236.92678 0.63074,1.35429 388.90873,388.90873 -0.63074,-1.35429 z"
       inkscape:connector-curvature="0"
       id="path3266"
       style="fill:#000000" />
    <path
       d="m 272.80099,238.28107 0.009,-3.98133 388.90873,388.90873 -0.009,3.98133 z"
       inkscape:connector-curvature="0"
       id="path3268"
       style="fill:#000000" />
    <path
       d="m 272.80999,234.29974 c 0.0172,-8.3441 -0.42364,-12.97919 -1.70739,-17.82087 L 660.01133,605.3876 c 1.28375,4.84168 1.72459,9.47677 1.70739,17.82087 z"
       inkscape:connector-curvature="0"
       id="path3270"
       style="fill:#000000" />
    <path
       d="m 271.1026,216.47887 -0.78628,-3.1281 388.90873,388.90873 0.78628,3.1281 z"
       inkscape:connector-curvature="0"
       id="path3272"
       style="fill:#000000" />
    <path
       d="m 270.31632,213.35077 34.04539,0.28443 388.90873,388.90873 -34.04539,-0.28443 z"
       inkscape:connector-curvature="0"
       id="path3274"
       style="fill:#000000" />
    <path
       d="m 304.36171,213.6352 0.44169,1.42192 388.90873,388.90873 -0.44169,-1.42192 z"
       inkscape:connector-curvature="0"
       id="path3276"
       style="fill:#000000" />
    <path
       d="m 304.8034,215.05712 c 0.69433,2.2363 1.19695,5.01887 1.34621,7.44886 l 388.90873,388.90873 c -0.14926,-2.42999 -0.65188,-5.21256 -1.34621,-7.44886 z"
       inkscape:connector-curvature="0"
       id="path3278"
       style="fill:#000000" />
    <path
       d="m 306.14961,222.50598 0.13749,2.23536 388.90873,388.90873 -0.13749,-2.23536 z"
       inkscape:connector-curvature="0"
       id="path3280"
       style="fill:#000000" />
    <path
       d="m 306.2871,224.74134 1.22737,-1.66331 388.90873,388.90873 -1.22737,1.66331 z"
       inkscape:connector-curvature="0"
       id="path3282"
       style="fill:#000000" />
    <path
       d="m 307.51447,223.07803 c 4.06374,-5.50713 9.03259,-8.92165 15.26646,-10.49077 l 388.90873,388.90873 c -6.23387,1.56912 -11.20272,4.98364 -15.26646,10.49077 z"
       inkscape:connector-curvature="0"
       id="path3284"
       style="fill:#000000" />
    <path
       d="m 322.78093,212.58726 c 3.03082,-0.76308 5.759,-1.00884 9.90798,-0.89335 l 388.90873,388.90873 c -4.14898,-0.11549 -6.87716,0.13027 -9.90798,0.89335 z"
       inkscape:connector-curvature="0"
       id="path3286"
       style="fill:#000000" />
    <path
       d="m 332.68891,211.69391 c 3.44278,0.0954 5.69481,0.40474 9.71394,1.33057 l 388.90873,388.90873 c -4.01913,-0.92583 -6.27116,-1.23517 -9.71394,-1.33057 z"
       inkscape:connector-curvature="0"
       id="path3288"
       style="fill:#000000" />
    <path
       d="m 342.40285,213.02448 1.0427,0.24061 388.90873,388.90873 -1.0427,-0.24061 z"
       inkscape:connector-curvature="0"
       id="path3290"
       style="fill:#000000" />
    <path
       d="m 343.44555,213.26509 c -0.002,3.37508 -0.002,6.76218 0,10.13407 l 388.90873,388.90873 c -0.002,-3.37189 -0.002,-6.75899 0,-10.13407 z"
       inkscape:connector-curvature="0"
       id="path3292"
       style="fill:#000000" />
    <path
       d="m 343.44555,223.39916 c 0.043,0 0.91913,-0.47177 1.7232,-1.04889 L 734.07748,611.259 c -0.80407,0.57712 -1.6802,1.04889 -1.7232,1.04889 z"
       inkscape:connector-curvature="0"
       id="path3294"
       style="fill:#000000" />
    <path
       d="m 345.16875,222.35027 c 12.93254,-9.2787 31.41079,-13.0677 48.99036,-10.04581 l 388.90873,388.90873 c -17.57957,-3.02189 -36.05782,0.76711 -48.99036,10.04581 z"
       inkscape:connector-curvature="0"
       id="path3296"
       style="fill:#000000" />
    <path
       d="m 394.15911,212.30446 c 9.68018,1.66407 18.7724,5.42249 25.68866,10.61889 L 808.7565,611.83208 c -6.91626,-5.1964 -16.00848,-8.95482 -25.68866,-10.61889 z"
       inkscape:connector-curvature="0"
       id="path3298"
       style="fill:#000000" />
    <path
       d="m 419.84777,222.92335 c 1.68731,1.26775 3.25403,2.62709 4.69644,4.06951 l 388.90873,388.90873 c -1.44242,-1.44242 -3.00913,-2.80176 -4.69644,-4.06951 z"
       inkscape:connector-curvature="0"
       id="path3300"
       style="fill:#000000" />
    <path
       d="m 424.54421,226.99286 c 8.78352,8.78351 12.95812,20.64787 11.69056,33.67397 L 825.1435,649.57556 c 1.26756,-13.0261 -2.90704,-24.89046 -11.69056,-33.67397 z"
       inkscape:connector-curvature="0"
       id="path3302"
       style="fill:#000000" />
    <path
       d="m 436.23477,260.66683 c -1.014,10.41996 -5.85713,19.67228 -13.90571,26.56516 l 388.90873,388.90873 c 8.04858,-6.89288 12.89171,-16.1452 13.90571,-26.56516 z"
       inkscape:connector-curvature="0"
       id="path3304"
       style="fill:#000000" />
    <path
       d="m 422.32906,287.23199 c -10.61271,9.08879 -25.80973,13.91233 -42.38871,13.45414 l 388.90873,388.90873 c 16.57898,0.45819 31.776,-4.36535 42.38871,-13.45414 z"
       inkscape:connector-curvature="0"
       id="path3306"
       style="fill:#000000" />
    <path
       d="m 379.94035,300.68613 c -10.83949,-0.2999 -20.00252,-2.54677 -28.42714,-6.97168 l 388.90873,388.90873 c 8.42462,4.42491 17.58765,6.67178 28.42714,6.97168 z"
       inkscape:connector-curvature="0"
       id="path3308"
       style="fill:#000000" />
    <path
       d="m 351.51321,293.71445 c -4.31616,-2.23118 -8.21945,-5.1052 -11.61704,-8.50279 L 728.8049,674.12039 c 3.39759,3.39759 7.30088,6.27161 11.61704,8.50279 z"
       inkscape:connector-curvature="0"
       id="path3310"
       style="fill:#000000" />
    <path
       d="m 339.89617,285.21166 c -2.04809,-2.04809 -3.91242,-4.28643 -5.57266,-6.6889 l 388.90873,388.90873 c 1.66024,2.40247 3.52457,4.64081 5.57266,6.6889 z"
       inkscape:connector-curvature="0"
       id="path3312"
       style="fill:#000000" />
    <path
       d="m 334.32351,278.52276 c -7.74017,-11.66443 -8.77076,-27.34095 -2.65668,-40.41115 l 388.90873,388.90873 c -6.11408,13.0702 -5.08349,28.74672 2.65668,40.41115 z"
       inkscape:connector-curvature="0"
       id="path3314"
       style="fill:#000000" />
    <path
       d="m 331.66683,238.11161 c 0.48294,-1.03187 0.87762,-1.89927 0.87762,-1.92746 l 388.90873,388.90873 c 0,0.0282 -0.39468,0.89559 -0.87762,1.92746 z"
       inkscape:connector-curvature="0"
       id="path3316"
       style="fill:#000000" />
    <path
       d="m 332.54445,236.18415 c -3.45206,-1.18131 -7.14362,-1.15226 -10.67286,-0.39357 l 388.90873,388.90873 c 3.52924,-0.75869 7.2208,-0.78774 10.67286,0.39357 z"
       inkscape:connector-curvature="0"
       id="path3318"
       style="fill:#000000" />
    <path
       d="m 321.87159,235.79058 c -2.15647,0.65137 -3.51918,1.34965 -5.39774,2.76521 l 388.90873,388.90873 c 1.87856,-1.41556 3.24127,-2.11384 5.39774,-2.76521 z"
       inkscape:connector-curvature="0"
       id="path3320"
       style="fill:#000000" />
    <path
       d="m 316.47385,238.55579 c -4.52064,3.40644 -7.1487,8.38002 -8.26994,15.65083 l 388.90873,388.90873 c 1.12124,-7.27081 3.7493,-12.24439 8.26994,-15.65083 z"
       inkscape:connector-curvature="0"
       id="path3322"
       style="fill:#000000" />
    <path
       d="m 308.20391,254.20662 c -0.58348,3.78291 -0.68059,7.48315 -0.6823,25.92557 l 388.90873,388.90873 c 0.002,-18.44242 0.0988,-22.14266 0.6823,-25.92557 z"
       inkscape:connector-curvature="0"
       id="path3324"
       style="fill:#000000" />
    <path
       d="m 307.52161,280.13219 0,18.53179 388.90873,388.90873 0,-18.53179 z"
       inkscape:connector-curvature="0"
       id="path3326"
       style="fill:#000000" />
    <path
       d="m 307.52161,298.66398 -34.60094,0 388.90873,388.90873 34.60094,0 z"
       inkscape:connector-curvature="0"
       id="path3328"
       style="fill:#000000" />
    <path
       d="m 272.92067,298.66398 0,-20.72006 388.90873,388.90873 0,20.72006 z"
       inkscape:connector-curvature="0"
       id="path3330"
       style="fill:#000000" />
    <path
       d="m 272.92067,277.94392 -1.00962,1.70567 388.90873,388.90873 1.00962,-1.70567 z"
       inkscape:connector-curvature="0"
       id="path3332"
       style="fill:#000000" />
    <path
       d="m 271.91105,279.64959 c -1.546,2.61208 -3.31878,4.87287 -5.61884,7.16606 l 388.90873,388.90873 c 2.30006,-2.29319 4.07284,-4.55398 5.61884,-7.16606 z"
       inkscape:connector-curvature="0"
       id="path3334"
       style="fill:#000000" />
    <path
       d="m 266.29221,286.81565 c -8.20635,8.18143 -19.88144,12.70516 -35.45906,13.73918 l 388.90873,388.90873 c 15.57762,-1.03402 27.25271,-5.55775 35.45906,-13.73918 z"
       inkscape:connector-curvature="0"
       id="path3336"
       style="fill:#000000" />
    <path
       d="m 230.83315,300.55483 c -3.24643,0.21569 -9.57018,0.21053 -12.82056,-0.009 l 388.90873,388.90873 c 3.25038,0.21953 9.57413,0.22469 12.82056,0.009 z"
       inkscape:connector-curvature="0"
       id="path3338"
       style="fill:#000000" />
    <path
       d="m 243.46513,271.97096 29.54743,0.5302 388.90873,388.90873 -29.54743,-0.5302 z"
       inkscape:connector-curvature="0"
       id="path3340"
       style="fill:#000000" />
    <path
       d="m 273.01256,272.50116 0,-9.66874 388.90873,388.90873 0,9.66874 z"
       inkscape:connector-curvature="0"
       id="path3342"
       style="fill:#000000" />
    <path
       d="m 273.01256,262.83242 -33.48356,0 388.90873,388.90873 33.48356,0 z"
       inkscape:connector-curvature="0"
       id="path3344"
       style="fill:#000000" />
    <path
       d="m 239.529,262.83242 -33.48364,0 388.90873,388.90873 33.48364,0 z"
       inkscape:connector-curvature="0"
       id="path3346"
       style="fill:#000000" />
    <path
       d="m 206.04536,262.83242 0.13577,1.27961 388.90873,388.90873 -0.13577,-1.27961 z"
       inkscape:connector-curvature="0"
       id="path3348"
       style="fill:#000000" />
    <path
       d="m 206.18113,264.11203 c 0.0773,0.70379 0.3317,2.05421 0.57145,3.00075 l 388.90873,388.90873 c -0.23975,-0.94654 -0.49415,-2.29696 -0.57145,-3.00075 z"
       inkscape:connector-curvature="0"
       id="path3350"
       style="fill:#000000" />
    <path
       d="m 206.75258,267.11278 c 0.69391,2.74187 1.97349,5.04275 3.80975,6.87902 l 388.90873,388.90873 c -1.83626,-1.83627 -3.11584,-4.13715 -3.80975,-6.87902 z"
       inkscape:connector-curvature="0"
       id="path3352"
       style="fill:#000000" />
    <path
       d="m 210.56233,273.9918 c 2.51411,2.51411 6.07176,4.15727 10.59859,4.86886 l 388.90873,388.90873 c -4.52683,-0.71159 -8.08448,-2.35475 -10.59859,-4.86886 z"
       inkscape:connector-curvature="0"
       id="path3354"
       style="fill:#000000" />
    <path
       d="m 221.16092,278.86066 c 8.85608,0.83096 16.22133,0.41161 22.30369,-6.88987 l 388.90873,388.90873 c -6.08236,7.30148 -13.44761,7.72083 -22.30369,6.88987 z"
       inkscape:connector-curvature="0"
       id="path3356"
       style="fill:#000000" />
    <path
       d="m 391.32725,276.95442 c 5.69576,-3.54779 9.18185,-10.2395 9.83803,-18.88479 l 388.90873,388.90873 c -0.65618,8.64529 -4.14227,15.337 -9.83803,18.88479 z"
       inkscape:connector-curvature="0"
       id="path3358"
       style="fill:#000000" />
    <path
       d="m 401.16528,258.06963 c 0.47606,-6.26747 -1.12829,-12.91733 -4.22451,-17.51315 L 785.8495,629.46521 c 3.09622,4.59582 4.70057,11.24568 4.22451,17.51315 z"
       inkscape:connector-curvature="0"
       id="path3360"
       style="fill:#000000" />
    <path
       d="m 396.94077,240.55648 c -0.56799,-0.84316 -1.50343,-1.92222 -2.44471,-2.8635 l 388.90873,388.90873 c 0.94128,0.94128 1.87672,2.02033 2.44471,2.8635 z"
       inkscape:connector-curvature="0"
       id="path3362"
       style="fill:#000000" />
    <path
       d="m 394.49606,237.69298 c -0.736,-0.73599 -1.47556,-1.38776 -2.04585,-1.77667 l 388.90873,388.90873 c 0.57029,0.38891 1.30985,1.04067 2.04585,1.77667 z"
       inkscape:connector-curvature="0"
       id="path3364"
       style="fill:#000000" />
    <path
       d="m 392.45021,235.91631 c -4.59591,-3.18508 -10.25635,-3.56378 -15.60202,-2.4116 l 388.90873,388.90873 c 5.34567,-1.15218 11.00611,-0.77348 15.60202,2.4116 z"
       inkscape:connector-curvature="0"
       id="path3366"
       style="fill:#000000" />
    <path
       d="m 376.84819,233.50471 c -8.25275,2.54634 -13.29285,10.2896 -13.72156,21.08097 l 388.90873,388.90873 c 0.42871,-10.79137 5.46881,-18.53463 13.72156,-21.08097 z"
       inkscape:connector-curvature="0"
       id="path3368"
       style="fill:#000000" />
    <path
       d="m 363.12663,254.58568 c -0.31537,7.92612 1.88062,14.65375 6.2666,19.20189 L 758.30196,662.6963 c -4.38598,-4.54814 -6.58197,-11.27577 -6.2666,-19.20189 z"
       inkscape:connector-curvature="0"
       id="path3370"
       style="fill:#000000" />
    <path
       d="m 369.39323,273.78757 c 0.11525,0.11951 0.23001,0.23644 0.34443,0.35085 l 388.90873,388.90873 c -0.11442,-0.11441 -0.22918,-0.23134 -0.34443,-0.35085 z"
       inkscape:connector-curvature="0"
       id="path3372"
       style="fill:#000000" />
    <path
       d="m 369.73766,274.13842 c 2.60749,2.6075 5.0299,3.90821 8.70483,4.70548 l 388.90873,388.90873 c -3.67493,-0.79727 -6.09734,-2.09798 -8.70483,-4.70548 z"
       inkscape:connector-curvature="0"
       id="path3374"
       style="fill:#000000" />
    <path
       d="m 378.44249,278.8439 c 4.39836,0.69949 8.91633,0.1753 12.88476,-1.88948 l 388.90873,388.90873 c -3.96843,2.06478 -8.4864,2.58897 -12.88476,1.88948 z"
       inkscape:connector-curvature="0"
       id="path3376"
       style="fill:#000000" />
    <path
       d="m 240.69424,244.02659 c 0.29561,-0.29647 -0.80174,-4.0487 -1.66699,-5.69791 l 388.90873,388.90873 c 0.86525,1.64921 1.9626,5.40144 1.66699,5.69791 z"
       inkscape:connector-curvature="0"
       id="path3378"
       style="fill:#000000" />
    <path
       d="m 239.02725,238.32868 c -0.36132,-0.68881 -0.94128,-1.42784 -1.64633,-2.13289 l 388.90873,388.90873 c 0.70505,0.70505 1.28501,1.44408 1.64633,2.13289 z"
       inkscape:connector-curvature="0"
       id="path3380"
       style="fill:#000000" />
    <path
       d="m 237.38092,236.19579 c -1.04268,-1.04269 -2.35897,-2.01104 -3.64632,-2.63265 l 388.90873,388.90873 c 1.28735,0.62161 2.60364,1.58996 3.64632,2.63265 z"
       inkscape:connector-curvature="0"
       id="path3382"
       style="fill:#000000" />
    <path
       d="m 233.7346,233.56314 c -6.31885,-3.05102 -15.82175,-2.47089 -21.08862,1.28753 L 601.55471,623.7594 c 5.26687,-3.75842 14.76977,-4.33855 21.08862,-1.28753 z"
       inkscape:connector-curvature="0"
       id="path3384"
       style="fill:#000000" />
    <path
       d="m 212.64598,234.85067 c -2.70179,1.92788 -4.80258,4.98578 -5.91591,8.61109 L 595.6388,632.37049 c 1.11333,-3.62531 3.21412,-6.68321 5.91591,-8.61109 z"
       inkscape:connector-curvature="0"
       id="path3386"
       style="fill:#000000" />
    <path
       d="m 206.73007,243.46176 -0.25178,0.81979 388.90873,388.90873 0.25178,-0.81979 z"
       inkscape:connector-curvature="0"
       id="path3388"
       style="fill:#000000" />
    <path
       d="m 206.47829,244.28155 17.04206,-0.0601 388.90873,388.90873 -17.04206,0.0601 z"
       inkscape:connector-curvature="0"
       id="path3390"
       style="fill:#000000" />
    <path
       d="m 223.52035,244.22145 c 9.37306,-0.0344 17.10137,-0.12117 17.17389,-0.19335 l 388.90873,388.90873 c -0.0725,0.0722 -7.80083,0.15895 -17.17389,0.19335 z"
       inkscape:connector-curvature="0"
       id="path3392"
       style="fill:#000000" />
  </g>
  <path
     d="m 215.23247,308.64941 c -13.24523,-0.89778 -23.98402,-4.64385 -32.71283,-11.41055 -3.8493,-2.98399 -8.11354,-7.83262 -10.59716,-12.04946 -0.58151,-0.98672 -1.36661,-1.93217 -1.47512,-2.10097 l 0,23.53068 -37.20429,0 -0.0927,-27.16258 c -0.0955,-28.14661 -0.13541,-29.50857 -0.97428,-32.89173 -1.49905,-6.17026 -6.9917,-8.5641 -12.78059,-8.56716 -6.73979,-0.17715 -11.80016,2.56338 -14.77033,8.81599 -1.23285,3.39642 -1.15996,1.50998 -1.23462,31.92682 l -0.065,27.87866 -37.383755,0 c -0.545341,-25.59537 0.568524,-51.24713 -0.453526,-76.83277 -0.428487,-4.14691 -1.26068,-7.55576 -3.038887,-12.44715 l -0.97958,-2.69434 36.355766,0.14839 0.9256,1.90202 c 0.54257,1.11452 1.06703,2.58741 1.267652,3.55753 0.18827,0.91075 0.40715,1.6555 0.48598,1.6555 0.0834,0 1.32394,-0.79113 2.76678,-1.75882 5.62871,-3.77399 11.29573,-5.90129 18.58318,-6.97584 3.85551,-0.56853 13.5038,-0.50824 17.46505,0.10851 9.05481,1.4102 16.24562,4.49732 21.81303,9.36467 4.09935,3.58396 7.04289,9.09507 8.32147,15.58038 l 0.45353,2.30239 0.95862,-1.81483 c 1.86371,-3.52858 4.06047,-6.5288 7.04613,-9.62335 8.96792,-9.29529 21.23338,-14.71811 37.14374,-16.42194 3.78577,-0.40529 13.4283,-0.34964 17.28994,0.10016 8.08303,0.94173 14.67109,2.8407 20.70352,5.96769 4.76563,2.47028 8.32881,5.11045 12.05003,8.92832 3.48295,3.57356 6.58751,8.02821 8.58728,12.32167 l 0.68075,1.46166 0.01,-4.29699 c 0.0186,-9.00565 -0.45722,-14.00823 -1.84276,-19.23378 l -0.84862,-3.37611 36.74466,0.30698 0.47671,1.53465 c 0.74938,2.41361 1.29185,5.41679 1.45295,8.03944 l 0.14839,2.41259 1.32468,-1.79518 c 4.38593,-5.94376 9.74873,-9.629 16.47685,-11.32253 3.27112,-0.82358 6.2156,-1.08882 10.69353,-0.96418 3.71574,0.10297 6.14632,0.43683 10.4841,1.43607 l 1.12537,0.25968 c -0.002,3.64268 -0.002,7.29832 0,10.93755 0.0464,0 0.99201,-0.50918 1.85983,-1.13205 13.95788,-10.01436 33.90117,-14.10377 52.87453,-10.84229 10.44767,1.79601 20.26076,5.85241 27.72537,11.4608 12.91051,9.70023 19.27895,24.36836 17.68623,40.73595 -1.09439,11.2461 -6.32151,21.23199 -15.00821,28.67137 -11.45414,9.80939 -27.85604,15.01536 -45.74948,14.52084 -11.69889,-0.32368 -21.58841,-2.74869 -30.68097,-7.52443 -7.46645,-3.85968 -13.78816,-9.50175 -18.55257,-16.39615 -8.35385,-12.58924 -9.46615,-29.50866 -2.86732,-43.61512 0.52123,-1.11369 0.94721,-2.04986 0.94721,-2.08028 -3.72576,-1.27497 -7.71,-1.24362 -11.51906,-0.42478 -2.32744,0.70302 -3.79819,1.45666 -5.82569,2.98445 -4.87906,3.67652 -7.71548,9.04443 -8.92562,16.8917 -0.62974,4.08284 -0.73455,8.07645 -0.7364,27.98106 l 0,20.00108 -37.34425,0 0,-22.36284 -1.08967,1.8409 c -1.66857,2.81918 -3.58191,5.25921 -6.06432,7.73422 -8.85699,8.83009 -21.45773,13.71248 -38.27042,14.82848 -3.50382,0.23279 -10.32894,0.22722 -13.83703,-0.01 z m 27.47365,-30.83948 31.89008,0.57224 0,-10.43532 -36.13828,0 -36.13837,0 0.14653,1.38106 c 0.0834,0.75959 0.358,2.21708 0.61676,3.23867 1.77431,7.0109 7.0965,11.35036 15.5507,12.6793 9.55823,0.89684 17.50743,0.44424 24.07202,-7.43613 z m 159.58529,5.37858 c 6.14734,-3.82908 9.90982,-11.05134 10.61803,-20.38206 0.5138,-6.76439 -1.21775,-13.94148 -4.55945,-18.90167 -1.09235,-1.62156 -3.44391,-4.0515 -4.84659,-5.00807 -4.9603,-3.4376 -11.06952,-3.84633 -16.83902,-2.6028 -8.90706,2.74823 -14.34676,11.10541 -14.80946,22.75236 -0.34038,8.55454 2.02972,15.81557 6.76344,20.7243 2.95913,3.06866 5.6264,4.55899 9.76672,5.45722 4.74709,0.75495 9.62326,0.1892 13.90633,-2.03928 z m -162.57586,-35.5385 c 0.31904,-0.31997 -0.86531,-4.3697 -1.79916,-6.14966 -0.96669,-1.84285 -3.38335,-4.01884 -5.71228,-5.14338 -6.81983,-3.29292 -17.07616,-2.66679 -22.76061,1.38961 -2.916,2.08074 -5.18335,5.38108 -6.38495,9.29382 l -0.27175,0.88479 18.39323,-0.0649 c 10.1162,-0.0371 18.45725,-0.13078 18.53552,-0.20868 z"
     inkscape:connector-curvature="0"
     id="path2384"
     style="fill:#ffffff;fill-opacity:1" />
</svg>
